<svg width="36" height="36" viewBox="0 0 36 36" fill="none" xmlns="http://www.w3.org/2000/svg">
<path d="M33.0968 4.06452H29.0323V1.74194C29.0323 0.781548 28.2507 0 27.2903 0H26.129C25.1686 0 24.3871 0.781548 24.3871 1.74194V4.06452H23.2258V1.74194C23.2258 0.781548 22.4443 0 21.4839 0H20.3226C19.3622 0 18.5806 0.781548 18.5806 1.74194V4.06452H17.4194V1.74194C17.4194 0.781548 16.6378 0 15.6774 0H14.5161C13.5557 0 12.7742 0.781548 12.7742 1.74194V4.06452H11.6129V1.74194C11.6129 0.781548 10.8314 0 9.87097 0H8.70968C7.74929 0 6.96774 0.781548 6.96774 1.74194V4.06452H2.90323C1.30239 4.06452 0 5.3669 0 6.96774V33.0968C0 34.6976 1.30239 36 2.90323 36H30.787C31.3281 36 31.8292 35.755 32.1619 35.3276L35.633 30.8642C35.8694 30.5599 36 30.1802 36 29.7952V6.96774C36 5.3669 34.6976 4.06452 33.0968 4.06452ZM25.5484 1.74194C25.5484 1.422 25.8091 1.16129 26.129 1.16129H27.2903C27.6103 1.16129 27.871 1.422 27.871 1.74194V6.3871C27.871 6.70703 27.6103 6.96774 27.2903 6.96774H26.129C25.8091 6.96774 25.5484 6.70703 25.5484 6.3871V1.74194ZM19.7419 1.74194C19.7419 1.422 20.0026 1.16129 20.3226 1.16129H21.4839C21.8038 1.16129 22.0645 1.422 22.0645 1.74194V6.3871C22.0645 6.70703 21.8038 6.96774 21.4839 6.96774H20.3226C20.0026 6.96774 19.7419 6.70703 19.7419 6.3871V1.74194ZM13.9355 1.74194C13.9355 1.422 14.1962 1.16129 14.5161 1.16129H15.6774C15.9974 1.16129 16.2581 1.422 16.2581 1.74194V6.3871C16.2581 6.70703 15.9974 6.96774 15.6774 6.96774H14.5161C14.1962 6.96774 13.9355 6.70703 13.9355 6.3871V1.74194ZM8.12903 1.74194C8.12903 1.422 8.38974 1.16129 8.70968 1.16129H9.87097C10.1909 1.16129 10.4516 1.422 10.4516 1.74194V6.3871C10.4516 6.70703 10.1909 6.96774 9.87097 6.96774H8.70968C8.38974 6.96774 8.12903 6.70703 8.12903 6.3871V1.74194ZM2.90323 5.22581H6.96774V6.3871C6.96774 7.34748 7.74929 8.12903 8.70968 8.12903H9.87097C10.8314 8.12903 11.6129 7.34748 11.6129 6.3871V5.22581H12.7742V6.3871C12.7742 7.34748 13.5557 8.12903 14.5161 8.12903H15.6774C16.6378 8.12903 17.4194 7.34748 17.4194 6.3871V5.22581H18.5806V6.3871C18.5806 7.34748 19.3622 8.12903 20.3226 8.12903H21.4839C22.4443 8.12903 23.2258 7.34748 23.2258 6.3871V5.22581H24.3871V6.3871C24.3871 7.34748 25.1686 8.12903 26.129 8.12903H27.2903C28.2507 8.12903 29.0323 7.34748 29.0323 6.3871V5.22581H33.0968C34.0572 5.22581 34.8387 6.00735 34.8387 6.96774V10.4516H23.4505C23.4 10.3941 23.3506 10.3361 23.2961 10.2815C22.6574 9.64219 21.8073 9.29032 20.9032 9.29032C19.9992 9.29032 19.1491 9.64219 18.5104 10.2815L18 10.7919L17.4896 10.2815C16.8509 9.64219 16.0008 9.29032 15.0968 9.29032C14.1927 9.29032 13.3426 9.64219 12.7039 10.2815C12.6494 10.3361 12.6006 10.3941 12.5495 10.4516H1.16129V6.96774C1.16129 6.00735 1.94284 5.22581 2.90323 5.22581ZM32.5161 29.0323V15.0968C32.5161 14.4563 31.9953 13.9355 31.3548 13.9355H24.3081C24.3552 13.68 24.3871 13.4205 24.3871 13.1563V12.9147C24.3871 12.4624 24.3029 12.024 24.1496 11.6123H34.8387V29.0317L32.5161 29.0323ZM30.1935 29.0323V31.3548H4.64516V15.0968H12.0786C12.2963 15.5276 12.5884 15.9195 12.9408 16.2581H10.6397L9.97955 17.9088C9.522 19.051 9.29032 20.2535 9.29032 21.4839C9.29032 23.5272 10.8075 25.2186 12.7742 25.5019V29.0323H10.4516V30.1935H16.2581V29.0323H13.9355V25.5019C15.9021 25.2186 17.4194 23.5272 17.4194 21.4839C17.4194 20.7348 17.323 19.998 17.1528 19.2768L18 19.8703L18.8472 19.2774C18.677 19.998 18.5806 20.7348 18.5806 21.4839C18.5806 23.5272 20.0979 25.2186 22.0645 25.5019V29.0323H19.7419V30.1935H25.5484V29.0323H23.2258V25.5019C25.1925 25.2186 26.7097 23.5272 26.7097 21.4839C26.7097 20.2535 26.478 19.051 26.021 17.9088L25.3608 16.2581H23.0597C23.4122 15.9195 23.7043 15.5276 23.9214 15.0968H31.3548V29.0323H30.1935ZM23.2258 12.9153V13.1568C23.2258 14.1828 22.7241 15.1461 21.8839 15.7343L18 18.4523L14.1161 15.7337C13.2759 15.1455 12.7742 14.1823 12.7742 13.1563V12.9147C12.7742 12.2301 13.0407 11.5862 13.525 11.1019C13.9448 10.6827 14.5034 10.4516 15.0968 10.4516C15.6902 10.4516 16.2488 10.6827 16.6686 11.1025L18 12.4339L19.3314 11.1025C20.171 10.2629 21.6354 10.2629 22.475 11.1025C22.9593 11.5868 23.2258 12.2301 23.2258 12.9153ZM22.6452 24.3871C21.0443 24.3871 19.7419 23.0847 19.7419 21.4839C19.7419 20.4021 19.9457 19.3442 20.347 18.3403L20.4097 18.1835L21.5013 17.4194H24.5741L24.9428 18.3403C25.3446 19.3442 25.5484 20.4021 25.5484 21.4839C25.5484 23.0847 24.246 24.3871 22.6452 24.3871ZM15.653 18.3403C16.0543 19.3442 16.2581 20.4021 16.2581 21.4839C16.2581 23.0847 14.9557 24.3871 13.3548 24.3871C11.754 24.3871 10.4516 23.0847 10.4516 21.4839C10.4516 20.4021 10.6554 19.3442 11.0572 18.3403L11.4254 17.4194H14.4987L15.5897 18.1829L15.653 18.3403ZM2.90323 34.8387C1.94284 34.8387 1.16129 34.0572 1.16129 33.0968V11.6129H11.8504C11.6971 12.0246 11.6129 12.463 11.6129 12.9153V13.1568C11.6129 13.421 11.6448 13.6806 11.6919 13.9361H4.64516C4.00471 13.9361 3.48387 14.4569 3.48387 15.0974V31.3554C3.48387 31.9959 4.00471 32.5167 4.64516 32.5167H30.1935V34.8393L2.90323 34.8387ZM31.3548 34.4735V30.1935H34.6837L31.3548 34.4735Z" fill="white"/>
</svg>
