<svg width="39" height="40" viewBox="0 0 39 40" fill="none" xmlns="http://www.w3.org/2000/svg">
<path d="M20.4186 6.20513C19.2295 4.39422 17.2023 3.13511 14.8636 2.92291L14.8711 1.92978C14.8737 1.55844 15.1457 1.2837 15.5122 1.2837C15.8788 1.2837 16.1556 1.563 16.1534 1.92473C16.1501 2.78374 17.4385 2.78879 17.4418 1.92963C17.4484 0.867369 16.5697 0 15.5122 0C14.4548 0 13.5904 0.871905 13.5839 1.92458L13.5764 2.91645C11.1864 3.09525 9.10785 4.36259 7.89818 6.2049H6.51414C5.45699 6.2049 4.58454 7.07232 4.58454 8.13891C4.58454 9.20548 5.45624 10.078 6.51414 10.078H6.78944C6.85193 12.3927 8.09277 14.4193 9.95851 15.6505H2.04777C0.923196 15.6505 0 16.5788 0 17.7034V18.7857C0 19.6415 0.536052 20.3782 1.28724 20.6826L1.27843 29.3438C1.27393 33.2876 2.22685 36.0334 4.27655 37.7285C6.32624 39.4236 9.31048 40 13.2181 40H25.5512C29.4588 40 32.4413 39.4236 34.489 37.7285C36.5367 36.0334 37.4865 33.287 37.4909 29.3438L37.5008 20.6135C38.1764 20.277 38.6498 19.5854 38.6498 18.7857V17.7034C38.6498 16.5788 37.7228 15.6505 36.5983 15.6505H18.357C20.2228 14.4193 21.4648 12.3928 21.5273 10.078H21.9459C23.0038 10.078 23.8742 9.20548 23.8742 8.13891C23.8742 7.07232 23.4155 6.26178 22.2327 6.20483L20.4186 6.20513ZM35.5625 1.54887C34.4936 1.54887 33.609 2.42845 33.609 3.49735C33.609 4.56623 34.4936 5.44584 35.5625 5.44584C36.6314 5.44584 37.5097 4.56623 37.5097 3.49735C37.5097 2.42845 36.6314 1.54887 35.5625 1.54887ZM3.01697 1.63936C1.94808 1.63936 1.06851 2.52402 1.06851 3.5929C1.06851 4.66179 1.94808 5.54012 3.01697 5.54012C4.08587 5.54012 4.96543 4.66179 4.96543 3.5929C4.96543 2.52402 4.08587 1.63936 3.01697 1.63936ZM35.5625 2.83739C35.9357 2.83739 36.2225 3.12412 36.2225 3.49735C36.2225 3.87056 35.9357 4.15731 35.5625 4.15731C35.1893 4.15731 34.8975 3.87056 34.8975 3.49735C34.8975 3.12412 35.1893 2.83739 35.5625 2.83739ZM3.01697 2.9267C3.39018 2.9267 3.67693 3.21969 3.67693 3.5929C3.67693 3.96613 3.39018 4.25286 3.01697 4.25286C2.64375 4.25286 2.35701 3.96613 2.35701 3.5929C2.35701 3.21969 2.64375 2.9267 3.01697 2.9267ZM14.1584 4.17617C17.5496 4.17617 20.2489 6.75012 20.2489 9.89713C20.2489 13.0442 17.5496 15.6218 14.1584 15.6218C10.7671 15.6218 8.06788 13.0442 8.06788 9.89713C8.06788 6.75012 10.7671 4.17617 14.1584 4.17617ZM30.3117 4.48039C29.2428 4.48039 28.3645 5.36 28.3645 6.42888C28.3645 7.49778 29.2428 8.38107 30.3117 8.38107C31.3806 8.38107 32.2652 7.49778 32.2652 6.42888C32.2652 5.36 31.3806 4.48039 30.3117 4.48039ZM30.3117 5.76891C30.685 5.76891 30.9767 6.05567 30.9767 6.42888C30.9767 6.80211 30.685 7.09381 30.3117 7.09381C29.9385 7.09381 29.6518 6.80211 29.6518 6.42888C29.6518 6.05567 29.9385 5.76891 30.3117 5.76891ZM11.5826 7.14667C11.2297 7.15396 10.9481 7.44349 10.9516 7.79653V8.44269C10.9701 9.28207 12.2203 9.28207 12.2388 8.44269V7.79653C12.2427 7.43367 11.9455 7.13961 11.5826 7.14667ZM16.7329 7.14667C16.3779 7.15153 16.0933 7.44157 16.0968 7.79653V8.44269C16.0773 9.32009 17.4035 9.32009 17.384 8.44269V7.79653C17.3872 7.43566 17.0937 7.14246 16.7329 7.14667ZM6.51414 7.49357H7.2357C7.07543 7.90882 6.95644 8.34139 6.8812 8.78959H6.51414C6.14803 8.78959 5.87178 8.51543 5.87178 8.13913C5.87178 7.76284 6.14727 7.49357 6.51414 7.49357ZM21.0811 7.49357H21.9459C22.3128 7.49357 22.587 7.76284 22.587 8.13913C22.587 8.51543 22.312 8.78959 21.9459 8.78959H21.4356C21.3603 8.34137 21.2414 7.90884 21.0811 7.49357ZM36.0653 8.44773C34.9965 8.44773 34.1181 9.32724 34.1181 10.3961C34.1181 11.465 34.9965 12.3434 36.0653 12.3434C37.1342 12.3434 38.0138 11.465 38.0138 10.3961C38.0138 9.32724 37.1342 8.44773 36.0653 8.44773ZM36.0653 9.73492C36.4386 9.73492 36.7266 10.0229 36.7266 10.3961C36.7266 10.7694 36.4386 11.0561 36.0653 11.0561C35.6921 11.0561 35.4004 10.7694 35.4004 10.3961C35.4004 10.0229 35.6921 9.73492 36.0653 9.73492ZM28.4928 10.5533C27.4239 10.5533 26.5443 11.4316 26.5443 12.5005C26.5443 13.5694 27.4239 14.4489 28.4928 14.4489C29.5616 14.4489 30.44 13.5694 30.44 12.5005C30.44 11.4316 29.5616 10.5533 28.4928 10.5533ZM11.4783 12.3057C12.2359 13.0764 13.3308 13.3516 14.1584 13.3516C14.973 13.3516 16.0407 13.0833 16.7995 12.3434C17.4642 11.7462 16.5164 10.7732 15.9019 11.4219C15.5436 11.7714 14.5838 12.063 14.1584 12.063C13.7261 12.063 12.7431 11.7613 12.396 11.4081C12.2767 11.2814 12.1112 11.2084 11.9051 11.207C11.3291 11.2583 11.091 11.9205 11.4783 12.3057ZM28.4928 11.8406C28.866 11.8406 29.1527 12.1273 29.1527 12.5005C29.1527 12.8738 28.866 13.1605 28.4928 13.1605C28.1195 13.1605 27.8278 12.8738 27.8278 12.5005C27.8278 12.1273 28.1195 11.8406 28.4928 11.8406ZM2.04777 16.9379H36.5983C37.0321 16.9379 37.3626 17.2698 37.3626 17.7035V18.7859C37.3626 19.1938 37.0657 19.4968 36.67 19.5326C25.1293 19.5472 13.5885 19.5471 2.04777 19.5471C1.61406 19.5471 1.28724 19.2203 1.28724 18.7866V17.7043C1.28724 17.2706 1.61406 16.9379 2.04777 16.9379ZM36.2036 29.344C36.1997 33.0861 35.345 35.3463 33.6669 36.7355C31.9887 38.1248 29.329 38.713 25.5512 38.713H13.2181C9.44037 38.713 6.77354 38.1248 5.09367 36.7355C3.41381 35.3463 2.56132 33.0855 2.5657 29.344L2.57451 20.8487C13.7876 20.8341 25.0006 20.8341 36.2137 20.8341L36.2036 29.344ZM19.384 22.6212C18.2849 22.6212 17.5156 23.4031 17.1703 24.3735C16.2402 23.9355 15.1419 23.9248 14.3671 24.7017C13.5928 25.4779 13.6073 26.5732 14.049 27.4998C13.0822 27.8442 12.3004 28.6086 12.3004 29.7047C12.3004 30.8009 13.0822 31.5691 14.049 31.9134C13.6084 32.8398 13.5933 33.9321 14.3671 34.7079C15.1432 35.4861 16.2445 35.4757 17.1754 35.0348C17.5211 36.0043 18.2856 36.7884 19.384 36.7884C20.4828 36.7884 21.2535 36.0048 21.599 35.0348C22.5296 35.4746 23.6266 35.4856 24.4023 34.7079C25.176 33.9322 25.1609 32.8398 24.7203 31.9134C25.6881 31.5697 26.4689 30.8016 26.4689 29.7047C26.4689 28.6078 25.6881 27.8436 24.7203 27.4998C25.162 26.5732 25.1765 25.4779 24.4023 24.7017C23.6268 23.9242 22.5294 23.9342 21.599 24.3735C21.2535 23.4035 20.4828 22.6212 19.384 22.6212ZM19.384 23.9084C20.1171 23.9084 20.6527 24.4543 20.6298 25.1341C20.6121 25.7255 21.3346 26.0254 21.741 25.5954C22.2062 25.0991 22.9719 25.0953 23.4896 25.6149C24.0073 26.1339 23.9951 26.8906 23.4984 27.3484C23.0564 27.7557 23.3644 28.4927 23.9647 28.4646C24.6395 28.4381 25.1803 28.9723 25.1803 29.7054C25.1803 30.4385 24.6396 30.9714 23.9647 30.9449C23.3644 30.9166 23.0564 31.6538 23.4984 32.0612C23.995 32.5189 24.0073 33.2819 23.4896 33.8009C22.9719 34.3199 22.2061 34.3109 21.741 33.8155C21.3346 33.3854 20.6121 33.6853 20.6298 34.2768C20.6526 34.9566 20.1171 35.5025 19.384 35.5025C18.651 35.5025 18.1166 34.9566 18.1395 34.2768C18.1572 33.6854 17.4347 33.3854 17.0283 33.8155C16.5632 34.3118 15.7974 34.3208 15.2797 33.8009C14.7621 33.2819 14.7731 32.5189 15.2696 32.0612C15.7088 31.6559 15.4067 30.923 14.8096 30.9449C14.1347 30.9714 13.5877 30.4385 13.5877 29.7054C13.5877 28.9723 14.1348 28.4381 14.8096 28.4646C15.4067 28.4865 15.7088 27.7537 15.2696 27.3484C14.773 26.8906 14.762 26.1339 15.2797 25.6149C15.7974 25.0959 16.5632 25.0997 17.0283 25.5954C17.4347 26.0254 18.1572 25.7256 18.1395 25.1341C18.1167 24.4543 18.651 23.9084 19.384 23.9084ZM19.384 27.7563C18.3151 27.7563 17.4368 28.6358 17.4368 29.7047C17.4368 30.7736 18.3151 31.652 19.384 31.652C20.4529 31.652 21.3325 30.7736 21.3325 29.7047C21.3325 28.6358 20.4529 27.7563 19.384 27.7563ZM19.384 29.0435C19.7572 29.0435 20.0452 29.3315 20.0452 29.7047C20.0452 30.078 19.7572 30.3698 19.384 30.3698C19.0108 30.3698 18.7241 30.078 18.7241 29.7047C18.7241 29.3315 19.0108 29.0435 19.384 29.0435Z" fill="white"/>
</svg>
