<svg width="35" height="40" viewBox="0 0 35 40" fill="none" xmlns="http://www.w3.org/2000/svg">
<path d="M20.003 24.2754H15.371C15.035 24.2754 14.771 24.549 14.771 24.885C14.771 25.2114 15.035 25.485 15.371 25.485H20.003C20.3294 25.485 20.603 25.2114 20.603 24.885C20.603 24.5442 20.3294 24.2754 20.003 24.2754Z" fill="white"/>
<path d="M26.3728 20.4201L34.5712 14.9433C34.7296 14.8329 34.8304 14.6601 34.84 14.4681C34.8496 14.2761 34.7632 14.0889 34.6144 13.9689L18.0688 0.764059C17.8432 0.586459 17.536 0.586459 17.3104 0.764059L0.760016 13.9689C0.611216 14.0889 0.524816 14.2761 0.534416 14.4681C0.544016 14.6601 0.635215 14.8377 0.798415 14.9433L9.00162 20.4201C9.03042 20.6265 9.04962 20.8329 9.07842 21.0393C9.60162 24.2457 11.2144 26.9481 13.3984 28.5129L13.1008 30.7113C11.2624 31.1481 4.15362 33.1641 2.22402 38.4681C2.15682 38.6505 2.18562 38.8569 2.30082 39.0201C2.41602 39.1833 2.60322 39.2793 2.80002 39.2793H17.6944H32.5888C32.7856 39.2793 32.9728 39.1833 33.088 39.0201C33.2032 38.8569 33.2272 38.6505 33.16 38.4681C31.2208 33.1641 24.112 31.1481 22.2736 30.7113L21.976 28.5081C24.2992 26.8521 25.96 23.8953 26.3728 20.4201ZM25.24 19.5945C24.2176 18.3657 23.6656 17.0985 23.3632 16.2105C24.5056 16.8777 25.216 17.7321 25.216 18.6585C25.216 18.7449 25.2304 18.8217 25.2688 18.8937C25.264 19.1289 25.2496 19.3641 25.24 19.5945ZM17.6896 13.6665C14.4448 13.6665 11.6656 14.6265 10.1632 16.0905V14.6025C10.1632 12.5481 13.6096 10.8153 17.6896 10.8153C21.7696 10.8153 25.216 12.5481 25.216 14.6025V16.0857C23.7088 14.6265 20.9248 13.6665 17.6896 13.6665ZM8.94881 14.6025V18.5289C8.91521 18.6057 8.90082 18.6873 8.90082 18.7785C8.90082 18.8169 8.90082 18.8601 8.90082 18.8985L2.15682 14.3961L6.87522 10.6329V15.1113C6.87522 15.4425 7.14401 15.7113 7.48001 15.7113C7.81121 15.7113 8.08001 15.4425 8.08001 15.1113V9.66806L17.6848 2.00726L33.208 14.3961L26.4736 18.8985C26.4736 18.8601 26.4784 18.8169 26.4784 18.7785C26.4784 18.6921 26.4592 18.6105 26.4208 18.5337V14.6025C26.4208 11.8041 22.5856 9.60566 17.6896 9.60566C12.7936 9.60566 8.94881 11.8041 8.94881 14.6025ZM10.1056 18.8985C10.1392 18.8265 10.1584 18.7449 10.1584 18.6585C10.1584 16.6041 13.6048 14.8713 17.6848 14.8713C18.4768 14.8713 19.2448 14.9385 19.9792 15.0585C17.032 15.8025 12.2656 17.2617 10.1248 19.2825C10.1152 19.1529 10.1056 19.0281 10.1056 18.8985ZM3.71682 38.0697C5.31522 34.9881 9.08321 33.2697 11.5216 32.4393L15.3664 38.0697H3.71682ZM17.6896 38.0697H16.8304L15.2848 35.7993H20.0944L18.544 38.0697H17.6896ZM31.6576 38.0697H20.008L23.8528 32.4345C26.2912 33.2649 30.0592 34.9833 31.6576 38.0697ZM22.6432 32.0601L20.9152 34.5945H14.4592L12.7312 32.0601C13.3456 31.8873 13.744 31.8009 13.7632 31.8009C14.0176 31.7481 14.2096 31.5417 14.2432 31.2873L14.5312 29.1801C15.5056 29.6649 16.5712 29.9385 17.6896 29.9385C18.808 29.9385 19.8688 29.6649 20.848 29.1801L21.136 31.2873C21.1696 31.5417 21.3616 31.7481 21.616 31.8009C21.6304 31.8009 22.0288 31.8873 22.6432 32.0601ZM17.6896 28.7289C14.0944 28.7289 11.0848 25.4265 10.3072 21.0201C11.0992 18.8841 17.6176 16.7721 21.9952 15.8265C22.2592 16.9065 23.0368 19.1577 25.0432 21.1545C24.2272 25.4985 21.2464 28.7289 17.6896 28.7289Z" fill="white"/>
</svg>
