<svg width="31" height="42" viewBox="0 0 31 42" fill="none" xmlns="http://www.w3.org/2000/svg">
<path d="M29.1093 41.975C28.9005 41.9849 3.01595 41.9601 0.967857 41.9999C0.505544 42.0098 0.0233464 41.5127 0.00843311 41.0454C-0.0213935 40.2152 0.0382592 26.1023 0.028317 25.635C0.0183748 25.1627 0.505543 24.7352 0.938029 24.7153C1.60913 24.6805 4.16925 24.6905 4.16925 24.6905C4.16925 22.3292 4.04994 12.4765 4.03503 12.0092C4.01514 11.3132 4.50728 11.1293 5.04913 11.0547C6.03838 10.8956 13.2117 10.6173 13.6641 10.5725C13.51 9.24524 13.0526 6.362 14.5887 6.23275C14.5042 4.6768 14.4843 4.72154 13.6392 4.06535C13.0327 3.59807 13.3459 2.5939 13.5448 2.24095C13.8778 1.63448 14.5787 0.96338 14.8372 0.312165C15.1554 -0.498125 15.6674 0.461298 15.8613 1.01806C16.3982 2.57402 16.95 3.4887 15.5879 4.45807C15.2101 4.72651 15.3841 6.21287 15.3841 6.21287C16.1347 6.3272 16.4429 7.01322 16.4926 7.90801C16.5374 8.73819 16.5572 9.57333 16.602 10.5129C17.7155 10.5129 22.2939 10.8509 24.6999 11.0796C25.1523 11.1243 25.5201 11.527 25.5152 11.9793C25.5052 15.1807 25.5003 23.4278 25.5152 24.6855C25.9775 24.7054 28.6818 24.7054 29.1192 24.7103C29.6014 24.7203 30.0538 25.1627 30.0538 25.63C30.0538 27.5787 30.0786 40.081 30.0836 41.0106C30.0886 41.5177 29.6511 41.9452 29.1093 41.975ZM29.1143 34.6675C28.5078 34.7122 27.1407 34.6675 26.3553 33.0469C26.0073 32.3261 25.5052 32.5697 25.3213 33.1463C25.197 33.544 24.2326 35.3783 23.1638 35.4877C21.9757 35.612 20.902 35.3435 20.216 34.2201C19.868 33.6534 19.525 32.2267 18.7594 32.2068C18.2076 32.1919 17.9889 33.0369 17.6708 33.5838C16.9052 34.8961 14.9913 34.9111 13.8977 33.9019C13.4851 33.5191 12.9283 32.7138 12.6201 32.2366C12.2572 31.6798 11.5116 31.4064 10.8902 31.4711C10.2937 31.5307 9.81642 32.5597 9.64243 33.0717C9.28451 34.1306 8.98625 34.8663 8.06162 35.5275C6.76914 36.4571 5.45179 36.0395 4.78069 34.5979C4.54208 34.0859 4.10959 32.1422 3.15017 32.0775C2.53873 32.0378 0.943001 32.5249 1.0126 33.6633C1.06231 34.4686 1.02751 38.0826 1.01757 40.1556C1.0126 40.6378 1.40034 41.0255 1.87757 41.0255C6.30682 41.0255 26.1465 41.0255 28.3636 41.0255C28.7166 41.0255 29.1093 40.6676 29.1143 40.3047C29.1143 39.7529 29.1143 36.124 29.1143 34.6675ZM29.1143 26.1371C29.1143 25.8587 28.8906 25.635 28.6122 25.635C24.9584 25.635 4.65144 25.635 1.9074 25.635C1.15676 25.635 0.93803 26.0824 0.933059 26.5497C0.923117 27.2158 1.00265 30.4172 1.00265 31.5705C1.29098 31.4363 1.63398 31.2523 1.8378 31.1628C2.92647 30.6806 3.97537 30.8198 4.7111 31.7494C5.1585 32.3112 5.42197 33.0419 5.66058 33.7379C5.96382 34.6128 6.94809 34.9906 7.58937 34.3096C8.1163 33.7528 8.6333 32.7238 8.86694 32.0079C9.374 30.452 10.3533 30.0791 11.9391 30.5365C13.0824 30.8646 13.4404 31.6401 14.0369 32.5846C14.7577 33.723 15.6376 33.8472 16.6368 32.9524C16.9102 32.7039 17.0991 32.3509 17.283 32.0179C17.9044 30.8745 19.1671 30.4271 20.1414 31.6351C20.4794 32.0527 21.409 34.3493 22.274 34.3145C23.651 34.2648 24.1531 32.6492 24.4166 32.2018C24.69 31.7395 25.0578 31.0187 25.7836 31.0187C26.7977 31.0187 26.8971 31.7594 27.2948 32.6194C27.5136 33.0966 28.637 34.061 29.1093 33.3253C29.1143 31.3368 29.1192 28.384 29.1143 26.1371ZM5.06405 15.7673V24.0144C5.06405 24.3823 5.36231 24.6805 5.73018 24.6805C8.77746 24.6706 21.2549 24.6258 23.6411 24.6905C24.1034 24.6954 24.6104 24.0939 24.6055 23.3234C24.5806 19.9977 24.6104 14.9421 24.5955 14.3158C23.661 14.3605 23.6361 14.957 23.7206 15.7375C23.82 16.6323 23.5068 17.6812 22.5623 17.8204C21.8564 17.9248 21.4687 17.552 21.076 16.6224C20.9119 16.2296 20.6584 15.2603 20.4695 14.8775C20.1961 14.3357 19.6841 14.3655 19.5896 14.9918C19.53 15.3796 19.9774 17.8055 19.9078 18.8792C19.8581 19.6895 19.182 20.4899 18.3767 20.4998C17.4968 20.5098 16.8307 19.8138 16.7213 18.929C16.6219 18.1187 16.5622 15.7872 16.433 15.1559C16.2242 14.1318 15.8066 13.8932 15.5382 15.141C15.2548 16.4434 15.0361 17.7657 14.4992 18.1634C13.7436 18.7251 13.1371 18.1783 12.8339 17.2686C12.5704 16.4832 12.6201 16.0656 12.3716 14.7681C12.3069 14.445 12.0087 14.2859 11.7402 14.4848C11.5464 14.6289 11.4668 14.8725 11.4867 15.2702C11.5812 17.204 11.2779 18.2479 10.4478 20.0524C10.1594 20.6788 9.49827 21.0367 8.83214 20.7881C8.19087 20.5495 7.89758 20.127 7.87769 19.4758C7.84787 18.6207 7.9622 17.7558 8.04671 16.8958C8.09145 16.4434 8.39469 15.4641 8.39966 14.9471C8.40463 14.6787 7.87769 14.5792 7.71364 14.788C7.46012 15.1111 7.20162 15.7972 6.83376 16.0059C6.09307 16.4185 5.29272 16.0109 5.06405 15.7673ZM24.5806 13.3414C24.6253 12.3671 24.6154 12.1235 23.7504 11.9644C20.1166 11.2933 10.0252 11.2436 5.72023 11.9793C5.23306 12.0639 5.06405 12.2876 5.06405 12.72C5.06405 13.4558 5.29272 14.1368 5.53133 14.6886C5.67549 15.0217 6.13283 15.0565 6.32671 14.7532C6.55041 14.4052 6.71942 13.8634 7.07734 13.6298C7.37561 13.4409 7.89758 13.3414 8.43943 13.5651C9.77168 14.1169 9.60764 14.7085 9.38394 15.7574C9.18509 16.6969 8.94151 17.8303 8.91665 18.924C8.90174 19.5305 9.33423 19.5951 9.59272 19.2918C10.0998 18.6903 10.3632 17.9298 10.4776 16.8659C10.5521 16.1501 10.5124 15.4094 10.4378 14.6886C10.3135 13.5999 11.2133 13.1376 11.8645 13.073C13.6293 12.7051 13.6392 16.4484 13.8331 16.851C14.2159 17.6365 14.8124 13.8485 15.0112 13.5204C15.4735 12.7499 15.9905 12.6703 16.6964 13.0133C17.2234 13.2669 17.2979 14.0324 17.3824 14.7234C17.5316 15.9562 17.6708 17.2736 17.7105 18.5164C17.7354 19.2819 18.6004 19.6647 18.8539 18.8991C19.1671 17.9646 18.5755 15.9562 18.5656 15.0018C18.5606 14.1219 19.1522 13.411 19.8978 13.421C20.7877 13.4259 21.3146 14.0722 21.4438 14.967C21.6377 16.3092 22.0453 16.6422 22.3883 16.4732C22.9302 16.1998 22.9302 14.9372 23.0942 14.3009C23.3179 13.3961 23.7305 13.4061 24.5806 13.3414ZM14.5986 10.5377C15.0411 10.4781 15.7519 10.5278 15.7519 10.5278C15.6873 9.82189 15.6525 8.76801 15.5779 8.07703C15.4835 7.222 14.5091 7.30651 14.5091 7.98258C14.4992 9.15079 14.5589 9.51865 14.5986 10.5377ZM14.9913 1.6991C14.5738 1.99737 13.848 3.56824 14.7726 3.59807C15.2996 3.61298 15.3145 2.1813 14.9913 1.6991Z" fill="white"/>
</svg>
