<svg width="40" height="40" viewBox="0 0 40 40" fill="none" xmlns="http://www.w3.org/2000/svg">
<path d="M38.7212 11.1017H36.1014V1.27883C36.1014 1.01375 35.8867 0.798828 35.6214 0.798828H18.4169C18.1516 0.798828 17.9369 1.01375 17.9369 1.27883V11.1017H15.317C15.0517 11.1017 14.837 11.3166 14.837 11.5817V38.2388H6.44874V32.9144C6.80499 33.0938 7.19441 33.1932 7.58921 33.1932C8.10859 33.1932 8.63265 33.0338 9.08546 32.7048C10.045 32.0077 10.3783 30.7712 9.95734 29.7113C10.9206 29.101 11.3776 27.9048 11.0116 26.777C10.6455 25.6496 9.57905 24.953 8.4339 25.0224C8.15124 23.9178 7.15468 23.1134 5.96874 23.1134C4.7828 23.1134 3.78624 23.9178 3.50359 25.0224C2.36124 24.9474 1.29296 25.6496 0.926398 26.777C0.559836 27.9048 1.01687 29.101 1.98015 29.7113C1.55921 30.7712 1.89296 32.0075 2.85249 32.7048C3.64878 33.2832 4.66351 33.3295 5.48874 32.9141V38.2388H1.28124C1.01593 38.2388 0.801242 38.4538 0.801242 38.7188C0.801242 38.9839 1.01593 39.1988 1.28124 39.1988H38.7212C38.9866 39.1988 39.2012 38.9839 39.2012 38.7188V11.5817C39.2012 11.3166 38.9866 11.1017 38.7212 11.1017ZM3.41687 31.928C2.7264 31.4267 2.55671 30.477 3.02968 29.7662C3.11124 29.6441 3.13234 29.4915 3.08687 29.3518C3.0414 29.2123 2.93499 29.1013 2.79718 29.0502C1.99655 28.753 1.57562 27.8848 1.83952 27.0737C2.10343 26.2618 2.95515 25.808 3.77593 26.0375C3.91749 26.0776 4.06843 26.0497 4.18749 25.9637C4.30609 25.8774 4.37874 25.7417 4.38484 25.595C4.41999 24.7419 5.11562 24.0734 5.96874 24.0734C6.82187 24.0734 7.51749 24.7419 7.55265 25.595C7.55874 25.7417 7.6314 25.8774 7.74999 25.9637C7.86859 26.0497 8.01952 26.0776 8.16155 26.0375C8.98234 25.8076 9.83452 26.262 10.0984 27.0734C10.3619 27.8848 9.94093 28.753 9.14077 29.0502C9.00296 29.1013 8.89655 29.2123 8.85108 29.3518C8.80562 29.4913 8.82671 29.6438 8.9078 29.7659C9.38124 30.477 9.21109 31.4267 8.52109 31.928C7.83109 32.4298 6.87577 32.2979 6.34515 31.628C6.25421 31.513 6.11546 31.4459 5.96874 31.4459C5.82202 31.4459 5.68327 31.513 5.59234 31.628C5.06218 32.2977 4.1064 32.4298 3.41687 31.928ZM18.8969 1.75883H35.1414V11.1017H18.8969V1.75883ZM33.7609 38.2388H27.4989V27.9263H33.7609V38.2388ZM26.5389 38.2388H20.2773V27.9263H26.5389V38.2388ZM34.7209 38.2388V27.4463C34.7209 27.1813 34.5062 26.9663 34.2409 26.9663H19.7973C19.532 26.9663 19.3173 27.1813 19.3173 27.4463V38.2388H15.797V12.0617H38.2412V38.2388H34.7209Z" fill="white"/>
<path d="M24.7656 16.1836H19.7964C19.5311 16.1836 19.3164 16.3985 19.3164 16.6636V23.333C19.3164 23.598 19.5311 23.813 19.7964 23.813H24.7656C25.0309 23.813 25.2456 23.598 25.2456 23.333V16.6636C25.2456 16.3985 25.0309 16.1836 24.7656 16.1836ZM24.2856 22.853H20.2764V17.1436H24.2856V22.853Z" fill="white"/>
<path d="M34.2397 16.1836H29.2705C29.0052 16.1836 28.7905 16.3985 28.7905 16.6636V23.333C28.7905 23.598 29.0052 23.813 29.2705 23.813H34.2397C34.5051 23.813 34.7197 23.598 34.7197 23.333V16.6636C34.7197 16.3985 34.5051 16.1836 34.2397 16.1836ZM33.7597 22.853H29.7505V17.1436H33.7597V22.853Z" fill="white"/>
<path d="M31.29 4.09766H22.7461C22.4808 4.09766 22.2661 4.31258 22.2661 4.57766V8.28453C22.2661 8.54961 22.4808 8.76453 22.7461 8.76453H31.29C31.5553 8.76453 31.77 8.54961 31.77 8.28453V4.57766C31.77 4.31258 31.5553 4.09766 31.29 4.09766ZM30.81 7.80453H23.2261V5.05766H30.81V7.80453Z" fill="white"/>
</svg>
