<svg width="34" height="36" viewBox="0 0 34 36" fill="none" xmlns="http://www.w3.org/2000/svg">
<path d="M3.40402 20.4752C3.25133 20.4752 3.09864 20.4534 2.9514 20.4098C2.53149 20.2898 2.18248 20.0117 1.9698 19.6299C1.53353 18.8392 1.8171 17.8413 2.60784 17.405L16.3993 9.76486C16.8847 9.49765 17.4627 9.49765 17.9426 9.76486L31.7341 17.405C32.1158 17.6177 32.3939 17.9667 32.5139 18.3866C32.6339 18.8065 32.5848 19.2482 32.3721 19.6299C32.1595 20.0117 31.8104 20.2898 31.3905 20.4098C30.9706 20.5297 30.5289 20.4807 30.1472 20.268L17.1737 13.075L7.34133 18.5229C7.07957 18.6702 6.74692 18.572 6.59968 18.3102C6.45244 18.0485 6.5506 17.7158 6.81236 17.5686L16.9065 11.9735C17.0701 11.8808 17.2719 11.8808 17.4355 11.9735L30.6761 19.3137C30.8016 19.3845 30.9488 19.4009 31.0906 19.3627C31.2324 19.3246 31.3469 19.2319 31.4178 19.101C31.565 18.8392 31.4669 18.5066 31.2051 18.3593L17.4136 10.7192C17.2609 10.6319 17.0755 10.6319 16.9228 10.7192L3.13136 18.3593C3.00593 18.4302 2.91322 18.5447 2.8696 18.6865C2.82597 18.8283 2.84778 18.9755 2.91868 19.101C2.98957 19.2264 3.10409 19.3191 3.24588 19.3627C3.38766 19.4009 3.5349 19.3845 3.66033 19.3137L5.44902 18.3211C5.71078 18.1739 6.04344 18.2721 6.19068 18.5338C6.33792 18.7956 6.23976 19.1282 5.978 19.2755L4.1893 20.268C3.9439 20.4043 3.67124 20.4752 3.39857 20.4752H3.40402Z" fill="white"/>
<path d="M29.1817 8.38952C28.8927 8.38952 28.6473 8.17139 28.6146 7.88236C28.5001 6.8844 28.0093 6.38814 27.0277 6.26817C26.755 6.23545 26.5205 5.97369 26.5205 5.69557C26.5205 5.40654 26.7386 5.16114 27.0277 5.12842C27.9984 5.0139 28.4837 4.5231 28.5982 3.53605C28.6309 3.26338 28.8927 3.02889 29.1654 3.02344C29.4544 3.02344 29.6998 3.24157 29.738 3.5306C29.8579 4.50674 30.3433 4.99209 31.3085 5.11206C31.5812 5.14478 31.8157 5.40654 31.8157 5.68466C31.8157 5.97369 31.5976 6.21909 31.3031 6.25181C30.3597 6.36633 29.8798 6.86804 29.7489 7.89326C29.7162 8.16593 29.4544 8.39497 29.1763 8.39497L29.1817 8.38952ZM28.5873 5.69557C28.8218 5.85917 29.0181 6.05549 29.1817 6.28998C29.3399 6.05004 29.5362 5.84826 29.7598 5.68466C29.5307 5.52652 29.3344 5.3302 29.1708 5.10116C29.0127 5.3302 28.8164 5.53197 28.5873 5.69012V5.69557Z" fill="white"/>
<path d="M28.6261 35.9993H5.72209C5.42216 35.9993 5.17676 35.7539 5.17676 35.4539V18.7994C5.17676 18.4995 5.42216 18.2541 5.72209 18.2541C6.02202 18.2541 6.26742 18.4995 6.26742 18.7994V34.9086H28.0808V19.1212L17.1741 13.0734L7.34173 18.5213C7.07997 18.6686 6.74732 18.5704 6.60008 18.3086C6.45284 18.0469 6.551 17.7142 6.81276 17.567L16.9069 11.9719C17.0705 11.8792 17.2723 11.8792 17.4359 11.9719L28.8879 18.3196C29.0624 18.4177 29.1714 18.5977 29.1714 18.794V35.4485C29.1714 35.7484 28.926 35.9938 28.6261 35.9938V35.9993Z" fill="white"/>
<path d="M24.8088 36.0001H16.6288C16.3289 36.0001 16.0835 35.7547 16.0835 35.4548V26.2932C16.0835 24.4281 17.5995 22.9121 19.4646 22.9121H21.9785C23.8436 22.9121 25.3596 24.4281 25.3596 26.2932V35.4548C25.3596 35.7547 25.1142 36.0001 24.8143 36.0001H24.8088ZM17.1742 34.9094H24.2635V26.2932C24.2635 25.0335 23.2383 24.0028 21.9731 24.0028H19.4591C18.1994 24.0028 17.1687 25.028 17.1687 26.2932V34.9094H17.1742Z" fill="white"/>
<path d="M13.9015 22.9121H8.44817C8.14823 22.9121 7.90283 23.1575 7.90283 23.4574V28.9108C7.90283 29.2107 8.14823 29.4561 8.44817 29.4561H13.9015C14.2014 29.4561 14.4468 29.2107 14.4468 28.9108V23.4574C14.4468 23.1575 14.2014 22.9121 13.9015 22.9121ZM13.3562 25.6388H11.7202V24.0028H13.3562V25.6388ZM8.9935 24.0028H10.6295V25.6388H8.9935V24.0028ZM8.9935 26.7294H10.6295V28.3654H8.9935V26.7294ZM13.3562 28.3654H11.7202V26.7294H13.3562V28.3654Z" fill="white"/>
<path d="M3.90057 9.54024C3.7806 9.54024 3.66062 9.50207 3.55701 9.42027C0.748542 7.15714 -0.407565 4.94308 0.126862 2.84355C0.508595 1.213 2.01917 0.0678006 3.88421 0.00236057C5.38388 -0.0467194 7.20529 0.662214 7.87605 2.81628C7.8815 2.83809 7.88696 2.85991 7.89241 2.88717C8.32322 5.39025 7.04169 7.65884 4.1896 9.45844C4.10234 9.51298 3.99873 9.54024 3.90057 9.54024ZM4.0369 1.08757C3.99873 1.08757 3.96056 1.08757 3.92784 1.08757C2.79354 1.12575 1.50656 1.76379 1.19572 3.09985C0.792169 4.69223 1.71378 6.44275 3.9442 8.3187C6.18006 6.80812 7.15076 5.05215 6.82901 3.09985C6.34912 1.61109 5.1003 1.08212 4.04236 1.08212L4.0369 1.08757Z" fill="white"/>
<path d="M3.90072 14.7596C3.82437 14.7596 3.74802 14.7432 3.67168 14.7105C3.39901 14.5851 3.27904 14.2579 3.40446 13.9852C4.0425 12.6001 3.868 12.0875 3.62805 11.384C3.43173 10.8114 3.18633 10.097 3.36084 8.91908C3.40446 8.61915 3.68258 8.41738 3.97706 8.461C4.277 8.50463 4.47877 8.78275 4.43514 9.07723C4.29881 9.99339 4.47332 10.4951 4.65328 11.0295C4.92594 11.8312 5.21497 12.6655 4.39152 14.4433C4.29881 14.6451 4.10249 14.7596 3.89526 14.7596H3.90072Z" fill="white"/>
<path d="M11.7969 7.44188C11.677 7.44188 11.557 7.40371 11.4534 7.32191C9.29931 5.58775 8.41587 3.8754 8.83033 2.2394C9.13026 0.957869 10.3191 0.0526153 11.7806 0.0035353C13.2584 -0.0400914 14.48 0.821536 14.9108 2.21214C14.9162 2.23395 14.9217 2.25576 14.9272 2.28303C15.1616 3.63546 14.8563 5.60956 12.086 7.36008C11.9987 7.41462 11.8951 7.44188 11.7969 7.44188ZM11.8896 1.08875C11.8896 1.08875 11.8406 1.08875 11.8188 1.08875C11.0444 1.11602 10.1119 1.56864 9.89373 2.49571C9.54471 3.85904 10.6899 5.23328 11.8351 6.21488C13.4002 5.12967 14.0819 3.88086 13.8638 2.49571C13.4493 1.21418 12.3314 1.0833 11.8951 1.0833L11.8896 1.08875Z" fill="white"/>
<path d="M11.797 11.3562C11.7207 11.3562 11.6443 11.3399 11.568 11.3072C11.2953 11.1817 11.1753 10.8545 11.3007 10.5819C11.7588 9.58936 11.6389 9.2458 11.4643 8.72774C11.3117 8.28601 11.1208 7.72977 11.2571 6.81361C11.3007 6.51368 11.5789 6.31191 11.8733 6.35553C12.1733 6.39916 12.3751 6.67728 12.3314 6.97176C12.2333 7.62616 12.3532 7.97517 12.4896 8.37327C12.6968 8.97314 12.9258 9.6548 12.2878 11.0399C12.1951 11.2417 11.9988 11.3562 11.7915 11.3562H11.797Z" fill="white"/>
<path d="M19.9003 7.09753C19.9003 7.09753 19.8566 7.09753 19.8348 7.09753C19.5349 7.05935 19.3222 6.78669 19.3604 6.48675C19.4967 5.37427 19.9657 4.33814 20.8382 3.23111C21.0237 2.99117 21.3672 2.95299 21.6017 3.13841C21.8362 3.32382 21.8798 3.66738 21.6944 3.90187C20.9528 4.8453 20.5547 5.70693 20.4456 6.61763C20.4129 6.89575 20.1784 7.09753 19.9057 7.09753H19.9003Z" fill="white"/>
<path d="M30.2619 12.5498C30.2619 12.5498 30.2292 12.5498 30.2129 12.5498C29.9129 12.5226 29.6893 12.2553 29.7166 11.9554C29.7711 11.3174 29.9675 10.7284 30.3328 10.0958C30.4801 9.83407 30.8182 9.74136 31.0745 9.89405C31.3362 10.0413 31.4235 10.3794 31.2763 10.6357C30.9927 11.132 30.8454 11.5682 30.8018 12.0481C30.7746 12.3317 30.5401 12.5444 30.2565 12.5444L30.2619 12.5498Z" fill="white"/>
<path d="M31.6249 15.5509C31.6249 15.5509 31.5813 15.5509 31.5594 15.5509C31.2595 15.5128 31.0468 15.2401 31.085 14.9402C31.2213 13.8277 31.6903 12.7915 32.5629 11.6845C32.7483 11.45 33.0918 11.4064 33.3263 11.5918C33.5608 11.7772 33.6044 12.1208 33.419 12.3553C32.6774 13.2987 32.2793 14.1603 32.1702 15.071C32.1375 15.3492 31.903 15.5509 31.6303 15.5509H31.6249Z" fill="white"/>
<path d="M22.3329 9.27875C22.3329 9.27875 22.2893 9.27875 22.2674 9.27875C21.9675 9.24058 21.7548 8.96791 21.793 8.67343C21.8857 7.92632 22.1966 7.2392 22.7692 6.50846C22.9546 6.26851 23.2981 6.23034 23.5326 6.41575C23.7671 6.60116 23.8107 6.94472 23.6253 7.17922C23.1727 7.75727 22.9382 8.25898 22.8728 8.80431C22.84 9.08243 22.6056 9.2842 22.3329 9.2842V9.27875Z" fill="white"/>
</svg>
