<svg width="32" height="43" viewBox="0 0 32 43" fill="none" xmlns="http://www.w3.org/2000/svg">
<path fill-rule="evenodd" clip-rule="evenodd" d="M27.342 3.19608C27.8272 4.09043 28.5576 4.83836 29.4426 5.34434C28.5576 5.85085 27.8272 6.59878 27.342 7.49259C26.8571 6.59878 26.1267 5.85085 25.2417 5.34434C26.1264 4.83836 26.8571 4.09043 27.342 3.19608ZM23.4858 5.92429C25.1757 6.29982 26.4894 7.70116 26.7547 9.41022C26.8581 10.0764 27.826 10.0765 27.9294 9.41022C28.1948 7.70116 29.5086 6.29982 31.1985 5.92429C31.8153 5.78758 31.8158 4.90168 31.1985 4.7649C29.5086 4.38939 28.1948 2.98803 27.9294 1.27899C27.826 0.612733 26.8581 0.612733 26.7547 1.27899C26.4892 2.98803 25.1755 4.38939 23.4858 4.7649C22.8681 4.90173 22.8687 5.78801 23.4858 5.92429ZM4.95753 9.08812C5.28482 9.61209 5.72468 10.0605 6.24258 10.3996C5.72468 10.7376 5.28501 11.1866 4.95753 11.7095C4.63006 11.1866 4.19043 10.7376 3.67249 10.3996C4.19024 10.0605 4.63006 9.61209 4.95753 9.08812ZM2.03973 10.9795C3.24446 11.2467 4.18097 12.2453 4.37023 13.4637C4.47358 14.1302 5.44163 14.13 5.54488 13.4637C5.73388 12.2453 6.67058 11.2467 7.87534 10.9795C8.49275 10.8423 8.49162 9.95517 7.87534 9.8186C6.67058 9.55095 5.73407 8.55338 5.54488 7.33438C5.44117 6.66754 4.47378 6.66743 4.37023 7.33438C4.18097 8.55234 3.24446 9.55095 2.03973 9.8186C1.42362 9.95622 1.42168 10.8418 2.03973 10.9795ZM15.7521 14.0149C14.6725 12.5446 14.2402 12.1281 12.9113 10.9431C12.5132 10.5876 12.1016 10.2208 11.7214 9.84378C10.8329 8.96339 10.8402 7.51238 11.7234 6.62858C12.9017 5.44952 14.2368 5.92607 15.3401 7.02926C15.5721 7.26119 15.9488 7.26136 16.1807 7.02926C17.2859 5.92321 18.6222 5.45294 19.7976 6.62858C20.6845 7.51573 20.6845 8.95918 19.7976 9.84582C19.022 10.6214 18.1431 11.3234 17.3514 12.1086C16.7363 12.7184 16.2503 13.3497 15.7521 14.0149ZM19.3712 11.8605C19.7944 11.4829 20.2322 11.0925 20.6382 10.6862C21.9884 9.33623 21.9884 7.13866 20.6382 5.78868C19.1451 4.29528 17.2956 4.51936 15.7605 5.80307C14.2251 4.51949 12.3759 4.29518 10.8827 5.78868C9.53355 7.13803 9.52808 9.34381 10.8847 10.6878C11.6807 11.4764 12.5228 12.1482 13.3056 12.9244C14.0694 13.6816 14.6381 14.5132 15.2689 15.3659C15.5036 15.6832 15.9798 15.6885 16.2204 15.3716C17.5991 13.556 17.6553 13.3928 19.3712 11.8605ZM11.4475 31.0669C10.0375 32.2895 8.31903 32.775 6.47795 32.4719L6.30196 32.4431C4.46109 32.14 2.98887 31.1296 2.04495 29.5197C1.10083 27.9103 0.937065 26.1314 1.57117 24.3776L2.06062 23.023C2.85464 23.0035 3.64383 22.853 4.45991 22.5628C5.94941 22.0342 7.33295 22.0332 8.81443 22.5622C10.3756 23.1196 11.8961 23.1777 13.4698 22.7225L13.5442 26.3471C13.5825 28.2129 12.8573 29.8449 11.4475 31.0669ZM4.13043 17.2943L13.3897 18.8185L13.4445 21.4845C12.024 21.9643 10.6386 21.9505 9.21393 21.4419C7.48462 20.8249 5.79911 20.8249 4.06159 21.4429C3.5292 21.632 3.01294 21.7522 2.50044 21.8045L4.13043 17.2943ZM14.568 18.2997C14.5622 18.0135 14.3529 17.7721 14.0704 17.7253L3.83584 16.0409C3.55329 15.9952 3.2776 16.1565 3.18047 16.4257L0.453123 23.9734C-0.304979 26.0713 -0.108937 28.1964 1.01957 30.1207C2.06201 31.8981 3.64341 33.0647 5.6131 33.5172L4.37562 41.0377L2.49242 40.7279C2.16855 40.6745 1.86274 40.8944 1.80938 41.2175C1.756 41.5421 1.97551 41.8478 2.29939 41.9012L7.33598 42.7216C7.6217 42.7216 7.87375 42.515 7.92168 42.2238C7.97485 41.8996 7.75555 41.594 7.43167 41.5406L5.5485 41.2303L6.78637 33.7099C8.78478 33.9114 10.654 33.327 12.2261 31.9649C13.9116 30.5044 14.7785 28.5534 14.7327 26.3235L14.568 18.2997ZM29.4741 29.5197C28.5302 31.1296 27.0581 32.14 25.2171 32.4431L25.0411 32.4719C23.2 32.775 21.4816 32.2895 20.0715 31.0669C18.6615 29.8449 17.9365 28.2129 17.9748 26.3471L18.0493 22.7215C19.608 23.1715 21.1358 23.1201 22.704 22.5622C24.1884 22.0342 25.5724 22.0347 27.0591 22.5628C27.8752 22.853 28.6644 23.0035 29.4584 23.023L29.9478 24.3776C30.5819 26.1314 30.4182 27.9103 29.4741 29.5197ZM27.3886 17.2943L29.0186 21.8056C28.5061 21.7522 27.9898 21.632 27.4574 21.4429C25.7231 20.8265 24.0378 20.8265 22.3057 21.4419C20.8605 21.9556 19.5123 21.9694 18.0745 21.4845L18.1293 18.8185L27.3886 17.2943ZM28.3387 16.4257C28.2412 16.1565 27.9657 15.9952 27.6832 16.0409L17.4487 17.7253C17.1661 17.7721 16.9568 18.0135 16.9508 18.2997L16.7863 26.3235C16.7405 28.5534 17.6074 30.5044 19.293 31.9649C20.865 33.327 22.7342 33.9114 24.7326 33.7099L25.9705 41.2303L24.0873 41.5406C23.7635 41.594 23.5441 41.8996 23.5973 42.2238C23.6511 42.5514 23.9592 42.7655 24.2803 42.7139L29.2196 41.9012C29.5435 41.8478 29.7628 41.5421 29.7096 41.2175C29.6563 40.8944 29.3505 40.6745 29.0266 40.7279L27.1434 41.0377L25.9057 33.5172C27.8756 33.0647 29.457 31.8981 30.4994 30.1207C31.628 28.1964 31.824 26.0713 31.0659 23.9734L28.3387 16.4257Z" fill="white"/>
</svg>
