<svg width="43" height="42" viewBox="0 0 43 42" fill="none" xmlns="http://www.w3.org/2000/svg">
<path d="M15.1701 15.786C15.281 15.5199 15.1551 15.2136 14.8887 15.1027C14.6199 14.9918 14.316 15.1184 14.2051 15.3845C13.9176 16.0745 13.25 16.521 12.5048 16.521C11.7596 16.521 11.092 16.0745 10.8041 15.3838C10.6929 15.1184 10.387 14.9918 10.1205 15.1027C9.8541 15.2136 9.7282 15.5199 9.83913 15.7867C10.29 16.8673 11.3363 17.5663 12.5048 17.5663C13.6736 17.5663 14.7196 16.8673 15.1701 15.786Z" fill="white"/>
<path d="M42.3348 26.2517H37.6567C37.8448 25.9351 37.96 25.5701 37.96 25.1758V22.2471L37.9603 22.2454L37.96 22.2437V18.856L37.9603 18.8543L37.96 18.8526V17.6681C37.96 16.4676 37.406 15.3563 36.4628 14.637C36.4924 14.1769 36.5288 13.2705 36.439 12.3715C36.3985 11.9659 36.3192 11.5623 36.2039 11.1724C36.1348 10.9403 36.0943 9.74937 36.1188 8.67412C36.1239 8.45703 36.0433 8.25151 35.8915 8.09634C35.7394 7.9405 35.5356 7.85475 35.3178 7.85475H33.3092C33.0911 7.85475 32.8873 7.9405 32.7352 8.09634C32.5834 8.25151 32.5028 8.45703 32.5079 8.67412C32.5324 9.72895 32.4909 10.943 32.4228 11.1724C32.3075 11.5623 32.2282 11.9659 32.1877 12.3722C32.0979 13.2705 32.1343 14.1769 32.1639 14.637C31.2206 15.3563 30.6667 16.4676 30.6667 17.6681V18.8526L30.6663 18.8543L30.6667 18.856V22.2437L30.6663 22.2454L30.6667 22.2471V25.1758C30.6667 25.5701 30.7819 25.9351 30.9699 26.2517H26.2919C26.0033 26.2517 25.7692 26.5192 25.7692 26.8077C25.7692 28.1446 26.7316 29.2579 27.9994 29.4996C27.6347 30.9879 26.8938 32.2875 26.1711 33.2782L25.3006 30.6064L25.9638 30.3581C26.2241 30.2607 26.3626 29.9763 26.2789 29.7115L25.2193 26.3626C24.6368 23.5003 21.7717 20.299 18.8094 20.299H18.6437L18.6409 20.2984L15.6646 20.023V19.3189C17.6949 18.4081 19.2658 16.6529 19.9212 14.4987C21.0971 14.39 22.0276 13.2818 22.0276 11.9203C22.0276 11.4549 21.9171 11.0116 21.7172 10.6209L21.7115 8.86943C21.7074 6.49232 20.7499 4.26084 19.0149 2.58332C17.2819 0.917363 14.9905 0 12.561 0C12.5545 0 12.5481 0 12.5416 0C10.1009 0.00408324 7.8061 0.930294 6.08059 2.60782C4.35033 4.2901 3.39962 6.52567 3.40404 8.90346L3.40902 10.4349C3.13774 10.8694 2.9879 11.376 2.9879 11.9203C2.9879 13.2797 3.91564 14.3865 5.08871 14.4982C5.74466 16.6546 7.31785 18.4115 9.35125 19.3216V20.0231L6.37016 20.2984L6.3674 20.299H6.18233C2.77353 20.299 0 23.0722 0 26.481V32.6066C0 32.8829 0.216666 33.1036 0.488285 33.1223V41.4773C0.488285 41.7659 0.72239 42 1.01094 42C1.29948 42 1.53359 41.7659 1.53359 41.4773V33.1292H4.06348V41.4773C4.06348 41.7659 4.29759 42 4.58614 42H20.4794C20.7679 42 21.002 41.7659 21.002 41.4773V32.9346L21.9293 35.7785C22.4975 37.5003 24.1563 38.7035 25.9628 38.7035C27.2218 38.7035 28.4042 38.1557 29.2076 37.1995C30.746 35.3695 31.8403 33.4218 32.4623 31.4047C32.6532 31.3639 32.9533 31.3101 33.2282 31.2611C35.4207 30.8691 37.2826 30.4607 37.7162 29.5516H40.1132C41.6264 29.5516 42.8575 28.3205 42.8575 26.7744C42.8575 26.4858 42.6234 26.2517 42.3348 26.2517ZM31.712 19.3769H36.9147V21.7227H31.712V19.3769ZM35.0698 8.90006C35.0685 9.00852 35.0678 9.15288 35.0677 9.30906H33.5591C33.559 9.15292 33.5582 9.0086 33.5569 8.90006H35.0698ZM32.9894 15.3339C33.1547 15.2277 33.2466 15.0385 33.2279 14.8432C33.2265 14.8309 33.1129 13.6223 33.2275 12.4763C33.2619 12.1353 33.3283 11.7964 33.4252 11.4691C33.4898 11.2509 33.5235 10.8165 33.5413 10.3544H35.0857C35.1035 10.8172 35.1371 11.252 35.2014 11.4691C35.2984 11.7964 35.3648 12.1353 35.3991 12.4756C35.5138 13.6223 35.4002 14.8309 35.3988 14.8432C35.3801 15.0385 35.472 15.2277 35.6373 15.3339C36.4373 15.8456 36.9147 16.7187 36.9147 17.6681V18.3316H31.712V17.6681C31.712 16.7187 32.1894 15.8456 32.9894 15.3339ZM31.712 25.1758V22.768H36.9147V25.1758C36.9147 25.7692 36.4322 26.2517 35.8394 26.2517H32.7876C32.1945 26.2517 31.712 25.7692 31.712 25.1758ZM15.3273 21.0419L17.2601 21.2205L14.2729 23.6248L13.3566 22.8837L15.3273 21.0419ZM20.1658 13.3737C20.2199 13.0048 20.2572 12.6306 20.2572 12.2469V10.8301C20.431 10.9329 20.6104 11.03 20.7927 11.1243C20.9097 11.3623 20.9823 11.6304 20.9823 11.9203C20.9823 12.5882 20.6409 13.1543 20.1658 13.3737ZM6.80911 3.35777C8.33895 1.87011 10.3755 1.04871 12.5437 1.0453C12.5494 1.0453 12.5549 1.0453 12.561 1.0453C14.7186 1.0453 16.7531 1.85855 18.2894 3.33599C19.8182 4.81412 20.6625 6.77951 20.6662 8.87216L20.6693 9.8603C17.0753 7.6608 15.4067 3.5 15.389 3.45577C15.3168 3.27202 15.147 3.14476 14.9504 3.12639C14.7581 3.10733 14.5638 3.20193 14.459 3.36934C14.4253 3.4231 11.1271 8.58701 4.45343 10.1339L4.44935 8.90074C4.44561 6.80945 5.28369 4.84066 6.80911 3.35777ZM4.0332 11.9203C4.0332 11.6859 4.0779 11.466 4.15536 11.2636C4.35862 11.2231 4.55538 11.176 4.75287 11.1296V12.2469C4.75287 12.6298 4.79004 13.0034 4.84393 13.3715C4.37181 13.1504 4.0332 12.5856 4.0332 11.9203ZM5.79817 12.2469V10.8509C10.7126 9.3752 13.661 6.16575 14.8024 4.68686C15.4343 5.95461 16.8554 8.36796 19.2119 10.1337V12.2469C19.2119 15.0828 17.4398 17.5075 14.9471 18.4867C14.9427 18.4884 14.9382 18.4896 14.934 18.4915C14.1797 18.786 13.3624 18.9536 12.5052 18.9536C8.80682 18.9536 5.79817 15.945 5.79817 12.2469ZM12.5052 19.9989C13.2388 19.9989 13.9462 19.8897 14.6193 19.6984V20.2732L12.5535 22.2032L10.3966 20.2664V19.6999C11.068 19.8902 11.7735 19.9989 12.5052 19.9989ZM9.69518 21.0414L11.7438 22.881L10.7647 23.6439L7.75165 21.2205L9.69518 21.0414ZM20.296 31.3646C20.0918 31.4408 19.9567 31.6361 19.9567 31.8539V40.9547H5.10879V32.6066C5.10879 32.318 4.87468 32.0839 4.58614 32.0839H1.0453V26.481C1.0453 23.6486 3.3496 21.3444 6.18233 21.3444H6.23771L10.4319 24.7171C10.5276 24.794 10.6436 24.8328 10.7596 24.8328C10.8729 24.8328 10.9862 24.796 11.0808 24.7225L12.5515 23.5772L13.9432 24.7028C14.1347 24.8573 14.408 24.858 14.5996 24.7035L18.7732 21.3444H18.8094C21.2433 21.3444 23.7031 24.1543 24.2087 26.624L25.1329 29.553L20.296 31.3646ZM33.0441 30.2322C31.8835 30.4397 31.6422 30.4826 31.5344 30.8589C30.8297 33.3082 29.4451 35.2933 28.4073 36.5271C27.8033 37.2458 26.9122 37.6582 25.9628 37.6582C24.6014 37.6582 23.3509 36.7503 22.9225 35.4526L21.7728 31.9273L24.3209 30.9732L25.481 34.5345C25.5395 34.7149 25.6916 34.8496 25.8781 34.8857C25.9114 34.8918 25.9448 34.8952 25.9778 34.8952C26.1306 34.8952 26.2779 34.8278 26.3779 34.7087C27.3508 33.5495 28.5646 31.7375 29.0527 29.5516H35.975C35.3531 29.7656 34.3821 29.9928 33.0441 30.2322ZM40.1132 28.5063H28.5135C27.7533 28.5063 27.1082 28.0048 26.8917 27.297H32.7876H35.8394H41.7404C41.5297 27.9959 40.8798 28.5063 40.1132 28.5063Z" fill="white"/>
</svg>
