<svg width="34" height="40" viewBox="0 0 34 40" fill="none" xmlns="http://www.w3.org/2000/svg">
<path d="M19.048 35.3516H17.3638C17.0985 35.3516 16.8838 35.5662 16.8838 35.8316C16.8838 36.0969 17.0985 36.3116 17.3638 36.3116H19.048C19.3133 36.3116 19.528 36.0969 19.528 35.8316C19.528 35.5662 19.3133 35.3516 19.048 35.3516Z" fill="white"/>
<path d="M33.4027 35.799C32.7225 32.8548 30.1013 30.7145 27.0272 30.5945L23.7229 30.4652L23.7132 29.3152C23.7117 29.1512 23.6264 28.9988 23.4867 28.9121C23.3466 28.8245 23.1722 28.8155 23.0246 28.8873L21.2991 29.7193V26.8631C23.6759 25.388 25.1761 22.7743 25.1761 19.884C25.1761 18.0664 24.5618 16.3032 23.4512 14.8665C23.4514 14.8636 23.453 14.8611 23.453 14.858V12.6235C25.5722 11.8824 26.9002 9.79367 26.6461 7.51883C26.4056 5.36867 24.676 3.5907 22.5333 3.29164C21.9586 3.21102 21.3872 3.23164 20.8299 3.35164C19.9946 1.78836 18.3652 0.798828 16.5708 0.798828C14.6644 0.798828 12.9474 1.92523 12.1725 3.64227C11.6096 3.54617 11.0475 3.57242 10.4977 3.71914C8.70471 4.19773 7.44518 5.80742 7.43393 7.63367C7.42221 9.59633 8.78065 11.2496 10.6575 11.6434V14.6095C9.41663 16.0896 8.7319 17.9581 8.7319 19.884C8.7319 22.8066 10.2676 25.4432 12.6938 26.91V29.7747L11.0831 28.898C10.9346 28.8165 10.755 28.8202 10.6102 28.9055C10.4649 28.9913 10.3749 29.147 10.3735 29.3152L10.3637 30.4646L6.8869 30.5963C3.81002 30.7126 1.18596 32.8524 0.50721 35.7929L0.490804 35.8651C0.301429 36.7126 0.20346 37.6665 0.19971 38.6991C0.199241 38.8271 0.249867 38.9495 0.339867 39.0399C0.429867 39.1304 0.55221 39.181 0.67971 39.181H33.2283C33.3558 39.181 33.4781 39.1304 33.5681 39.0399C33.6581 38.9495 33.7088 38.8271 33.7083 38.6991C33.7046 37.6641 33.6066 36.7102 33.4172 35.8646C33.4172 35.8637 33.4027 35.7999 33.4027 35.799ZM11.3055 15.338H17.6464C15.8286 18.2434 11.1052 19.0122 9.72928 19.177C9.86745 17.777 10.4158 16.4422 11.3055 15.338ZM22.6026 15.338C23.3631 16.2817 23.8762 17.393 24.0942 18.5715C21.0828 18.0955 19.4135 16.0591 18.9112 15.338H22.6026ZM8.39393 7.6393C8.40237 6.24477 9.3694 5.01383 10.7452 4.64633C11.266 4.50711 11.8017 4.51273 12.338 4.6618C12.5846 4.72789 12.8367 4.59523 12.9197 4.35711C13.4611 2.8032 14.9283 1.75883 16.5708 1.75883C17.9414 1.75883 19.1896 2.48117 19.8833 3.63453C19.3226 3.86668 18.4865 4.355 17.911 5.32883C17.776 5.55711 17.8514 5.85148 18.0797 5.98602C18.1561 6.03148 18.2405 6.05305 18.3235 6.05305C18.4875 6.05305 18.6474 5.96867 18.7369 5.81727C19.4292 4.6468 20.6489 4.38898 20.6611 4.38664C20.6693 4.38506 20.6753 4.37949 20.6833 4.3775C20.6922 4.37527 20.701 4.37721 20.7099 4.37445C21.2564 4.20617 21.826 4.16211 22.4002 4.24227C24.1153 4.4818 25.4996 5.90445 25.6917 7.6257C25.9069 9.54945 24.7111 11.3077 22.8488 11.806C22.6388 11.8623 22.493 12.0521 22.493 12.2696V14.378H11.6175V11.2327C11.6175 10.9866 11.4314 10.7804 11.1863 10.7551C9.58455 10.5915 8.38409 9.25226 8.39393 7.6393ZM9.70245 20.1481C10.9798 20.0151 16.053 19.2959 18.2846 16.1158C19.0324 17.1202 20.9222 19.1382 24.2015 19.5559C24.2064 19.6653 24.2161 19.7741 24.2161 19.884C24.2161 23.0246 22.2103 25.7954 19.2521 26.7704C16.8071 27.4201 14.6977 26.7826 14.6831 26.7784C11.7821 25.8232 9.81178 23.1786 9.70245 20.1481ZM13.6538 27.4066C13.8933 27.5115 14.1373 27.6093 14.3897 27.6924C14.453 27.7126 15.4688 28.0229 16.9416 28.0229C17.7033 28.0229 18.5878 27.9399 19.5253 27.6905C19.8055 27.5983 20.0748 27.4873 20.3391 27.3682V30.1822L16.682 31.9457L13.6538 30.2973V27.4066ZM1.42784 36.0737L1.44143 36.0146C2.02409 33.4895 4.2783 31.6557 6.92346 31.5554L10.8581 31.4063C10.8863 31.4053 10.9103 31.393 10.937 31.3873C10.9699 31.3803 11.0039 31.3773 11.034 31.3639C11.0618 31.3515 11.0835 31.3314 11.1081 31.3143C11.134 31.2963 11.1618 31.2818 11.1836 31.2591C11.2043 31.2377 11.2172 31.2108 11.2336 31.1858C11.2511 31.1594 11.2711 31.1356 11.2831 31.106C11.2944 31.0781 11.296 31.047 11.3018 31.0168C11.3076 30.988 11.3196 30.9615 11.3199 30.931L11.3269 30.1234L15.6174 32.459L11.3827 34.501C11.2167 34.5807 11.1113 34.749 11.1113 34.9332V38.221H1.16862C1.1958 37.4429 1.28252 36.7224 1.42784 36.0737ZM32.7394 38.221H12.0713V35.2346L22.7597 30.0807L22.7667 30.931C22.767 30.9617 22.7792 30.9886 22.7849 31.0176C22.7908 31.0473 22.7923 31.078 22.8034 31.1055C22.8156 31.136 22.8361 31.1605 22.854 31.1874C22.8702 31.2117 22.8825 31.2378 22.9027 31.2587C22.925 31.2819 22.9533 31.2969 22.9798 31.3152C23.0039 31.3318 23.0251 31.3516 23.0522 31.3637C23.0824 31.3771 23.1165 31.3803 23.1498 31.3873C23.1763 31.393 23.2 31.4053 23.228 31.4063L26.9897 31.5535C29.6321 31.6566 31.8844 33.4913 32.4671 36.0146L32.9349 35.9068L32.4806 36.0746C32.6255 36.7215 32.7122 37.4415 32.7394 38.221Z" fill="white"/>
</svg>
