<svg width="41" height="40" viewBox="0 0 41 40" fill="none" xmlns="http://www.w3.org/2000/svg">
<path d="M27.1592 37.1013C26.9087 37.1013 26.7021 37.3079 26.7021 37.5583V38.3847C26.7021 38.7729 26.3828 39.0922 25.9884 39.0922H23.8973V34.2025C23.8973 33.5389 23.3589 33.0005 22.6953 33.0005H22.0942V28.6242L23.8535 29.4757C24.0789 29.5884 24.3544 29.4944 24.4671 29.2628C24.5797 29.0374 24.4796 28.7619 24.2542 28.6492L18.2251 25.7255V22.7766C18.2251 22.7641 18.2188 22.7516 18.2188 22.7391C18.4379 22.5638 18.6508 22.376 18.8574 22.1756C19.1955 21.8375 19.4897 21.4744 19.7527 21.0862C21.8125 20.9422 23.4528 19.2205 23.4528 17.1294V14.4874C23.4528 14.4749 23.4591 14.4686 23.4591 14.4561C23.4591 14.4436 23.4528 14.4373 23.4528 14.4248V12.9473C23.4528 9.10941 21.1927 5.79746 17.9371 4.2448C17.9371 4.20723 17.9433 4.16967 17.9433 4.1321C17.9433 1.85319 16.0902 0 13.8175 0C11.5386 0 9.6854 1.85319 9.6854 4.1321C9.6854 4.16967 9.69166 4.20097 9.69166 4.23853C8.70872 4.70809 7.79465 5.33417 6.99953 6.12928C5.17765 7.95743 4.17593 10.3741 4.17593 12.9473V14.4311C4.17593 14.4436 4.17593 14.4498 4.17593 14.4624C4.17593 14.4749 4.17593 14.4811 4.17593 14.4937V17.142C4.17593 19.2143 5.73486 20.8984 7.7696 21.0862C8.03256 21.4744 8.32681 21.8438 8.66489 22.1819C8.89654 22.4198 9.15323 22.6264 9.40992 22.8267V25.7317L1.69667 29.4569C0.663641 29.9577 0 31.0221 0 32.1615V38.3785C0 39.2738 0.732509 40 1.6278 40H25.9884C26.8837 40 27.6162 39.2738 27.6162 38.3785V37.552C27.6162 37.3016 27.4096 37.1013 27.1592 37.1013ZM21.1739 32.9942H19.7777V27.4973L21.1739 28.1734V32.9942ZM18.8637 32.9942H8.75254V27.0527L9.77931 26.5519L13.4982 29.9202C13.6735 30.0767 13.9365 30.0767 14.1118 29.9202L17.8306 26.5519L18.8574 27.0527V32.9942H18.8637ZM6.44232 28.1797L7.83847 27.5035V33.0005H6.44232V28.1797ZM22.5325 14.4811C22.52 15.3514 21.9127 16.0776 21.0988 16.278V12.6154C21.9127 12.822 22.5137 13.5483 22.5325 14.4185V14.4811ZM20.36 20.0532C20.7857 19.1642 21.0236 18.2 21.0737 17.2171C21.6309 17.1294 22.1318 16.879 22.5262 16.5159V17.1232C22.5325 18.5005 21.6184 19.6713 20.36 20.0532ZM13.8112 0.914071C15.1323 0.914071 16.2655 1.71545 16.7601 2.84865C16.0025 2.07231 14.957 1.62154 13.8112 1.62154C12.6655 1.62154 11.6137 2.07857 10.8624 2.85491C11.3508 1.71545 12.4902 0.914071 13.8112 0.914071ZM13.8112 2.54187C14.7566 2.54187 15.6081 2.94882 16.2028 3.61246C15.439 3.41838 14.6377 3.29942 13.8112 3.29942C12.9973 3.29942 12.196 3.41211 11.4259 3.6062C12.0144 2.94256 12.8659 2.54187 13.8112 2.54187ZM7.63813 6.77414C8.4395 5.97903 9.3661 5.35921 10.3741 4.92722C10.4179 4.90844 10.468 4.88339 10.5181 4.87087C10.5243 4.87087 10.5306 4.86461 10.5369 4.85835C11.5636 4.44514 12.6718 4.21975 13.8112 4.21975C15.007 4.21975 16.1465 4.46392 17.1858 4.90218C17.1983 4.90844 17.2108 4.90844 17.2171 4.9147C20.1659 6.17311 22.2758 9.00924 22.5012 12.3587C22.113 12.0144 21.6309 11.7702 21.0988 11.6826V10.2676C21.0988 9.29097 20.3036 8.49585 19.3207 8.49585H18.5569C18.1061 8.49585 17.718 8.79637 17.6115 9.23462C17.4112 10.036 16.6974 10.5995 15.8648 10.5995H7.78213C7.14979 10.5995 6.62388 11.069 6.53623 11.6826C5.99155 11.7702 5.50947 12.0081 5.11504 12.3587C5.25278 10.2551 6.12928 8.28299 7.63813 6.77414ZM5.08374 14.4811V14.4248C5.09626 13.5483 5.70355 12.822 6.51745 12.6217V16.2905C5.70355 16.0776 5.10252 15.3514 5.08374 14.4811ZM5.08374 17.1232V16.5159C5.47817 16.879 5.97277 17.1294 6.52371 17.2171C6.54876 18.1875 6.76162 19.1454 7.16231 20.0282C5.94772 19.6212 5.08374 18.4818 5.08374 17.1232ZM8.35812 20.3099C7.75708 19.3144 7.43152 18.1812 7.43152 17.023V16.8227C7.43152 16.8164 7.43152 16.8101 7.43152 16.8101C7.43152 16.8039 7.43152 16.7976 7.43152 16.7976V12.1146C7.43152 12.1083 7.43152 12.102 7.43152 12.102C7.43152 12.0958 7.43152 12.0895 7.43152 12.0895V11.8641C7.43152 11.6701 7.58804 11.5135 7.78213 11.5135H15.8648C17.1169 11.5135 18.2 10.6683 18.5005 9.45375C18.5068 9.42244 18.5381 9.41618 18.5569 9.41618H19.3207C19.7965 9.41618 20.1784 9.79809 20.1784 10.2676V12.077C20.1784 12.0833 20.1784 12.0833 20.1784 12.0895C20.1784 12.0958 20.1784 12.0958 20.1784 12.102V16.7851C20.1784 16.7914 20.1784 16.7914 20.1784 16.7976C20.1784 16.8039 20.1784 16.8039 20.1784 16.8101C20.1784 18.0247 19.8341 19.2143 19.1892 20.2598H19.183C18.9075 20.7106 18.5819 21.1426 18.2 21.5182C16.9917 22.7203 15.4328 23.3839 13.805 23.3839H13.7925C12.0958 23.3777 10.4993 22.714 9.30349 21.512C8.93411 21.1551 8.62107 20.7419 8.35812 20.3099ZM13.7925 24.3105H13.805C15.0383 24.3105 16.2342 23.9787 17.3047 23.3589V25.8006L13.805 28.9685L10.3115 25.8069V23.4215C11.3695 23.9975 12.5591 24.3043 13.7925 24.3105ZM0.914071 38.3847V32.1678C0.914071 31.3727 1.37737 30.6339 2.09109 30.2833L5.52199 28.6179V32.9942H4.92096C4.25732 32.9942 3.71889 33.5326 3.71889 34.1963V39.0859H1.6278C1.23337 39.0922 0.914071 38.7729 0.914071 38.3847ZM4.63296 39.0922V34.2025C4.63296 34.046 4.76444 33.9145 4.92096 33.9145H22.6953C22.8518 33.9145 22.9833 34.046 22.9833 34.2025V39.0922H4.63296Z" fill="white"/>
<path d="M15.3071 19.6267C15.4887 19.4452 15.4887 19.1572 15.3071 18.9819C15.1256 18.8003 14.8376 18.8003 14.6623 18.9819C14.4369 19.2073 14.1364 19.3325 13.8171 19.3325C13.4978 19.3325 13.1972 19.2073 12.9656 18.9819C12.784 18.8003 12.496 18.8003 12.3207 18.9819C12.1392 19.1634 12.1392 19.4514 12.3207 19.6267C12.7214 20.0274 13.2536 20.2465 13.8171 20.2465C14.3743 20.2465 14.9064 20.0212 15.3071 19.6267Z" fill="white"/>
<path d="M13.8047 16.8488C14.0551 16.8488 14.2617 16.6422 14.2617 16.3918V15.7031C14.2617 15.4527 14.0551 15.2461 13.8047 15.2461C13.5543 15.2461 13.3477 15.4527 13.3477 15.7031V16.3918C13.3477 16.6422 13.5543 16.8488 13.8047 16.8488Z" fill="white"/>
<path d="M11.3816 14.293C11.1311 14.293 10.9245 14.4996 10.9245 14.75C10.9245 15.063 10.6678 15.326 10.3548 15.326C10.0418 15.326 9.77882 15.0693 9.77882 14.75C9.77882 14.4996 9.57221 14.293 9.32178 14.293C9.07135 14.293 8.86475 14.4996 8.86475 14.75C8.86475 15.5702 9.53465 16.2401 10.3548 16.2401C11.175 16.2401 11.8449 15.5702 11.8449 14.75C11.8386 14.4933 11.632 14.293 11.3816 14.293Z" fill="white"/>
<path d="M17.2675 16.2401C18.0877 16.2401 18.7576 15.5702 18.7576 14.75C18.7576 14.4996 18.551 14.293 18.3006 14.293C18.0501 14.293 17.8435 14.4996 17.8435 14.75C17.8435 15.063 17.5868 15.326 17.2675 15.326C16.9545 15.326 16.6978 15.0693 16.6978 14.75C16.6978 14.4996 16.4912 14.293 16.2408 14.293C15.9903 14.293 15.7837 14.4996 15.7837 14.75C15.7775 15.5702 16.4474 16.2401 17.2675 16.2401Z" fill="white"/>
<path d="M34.9033 26.2514L38.7348 20.1534C39.0604 19.64 39.1293 19.0139 38.9352 18.4379C38.7348 17.8619 38.2903 17.4174 37.7206 17.2171L29.4314 14.3058C28.8554 14.1055 28.2356 14.1744 27.7159 14.4999C27.2025 14.8192 26.8707 15.3514 26.8018 15.9524L26.7204 16.7037C25.7438 16.7475 24.9612 17.5489 24.9612 18.5381C24.9612 19.377 25.5309 20.0783 26.301 20.2974L25.9754 23.1085C25.2742 22.8893 24.5229 23.2587 24.2725 23.9537C24.0221 24.6611 24.3977 25.4437 25.1052 25.6942L27.6846 26.602L25.318 33.3448C25.1427 33.8394 25.174 34.3716 25.3994 34.8411C25.6248 35.3107 26.0255 35.6675 26.5138 35.8428C26.7267 35.918 26.9458 35.9555 27.165 35.9555C27.453 35.9555 27.741 35.8929 28.0102 35.7615C28.4797 35.5361 28.8366 35.1354 29.0119 34.647L31.3847 27.9042L33.9641 28.812C34.1144 28.8621 34.2647 28.8871 34.4149 28.8871C34.9784 28.8871 35.5043 28.5365 35.7046 27.9731C35.9488 27.2781 35.5919 26.5206 34.9033 26.2514ZM28.2042 15.2825C28.4797 15.1072 28.8178 15.0696 29.1246 15.1761L37.4138 18.0873C37.7206 18.1938 37.9585 18.4317 38.0649 18.7447C38.1714 19.0515 38.1338 19.3896 37.9585 19.665L34.0205 25.9321L32.9374 25.5502L33.4508 24.0977C33.5322 23.8598 33.4069 23.5968 33.169 23.5154C32.9311 23.434 32.6682 23.5592 32.5868 23.7971L32.0734 25.2496L30.6835 24.7613L31.9106 21.2928C31.992 21.0549 31.8668 20.792 31.6289 20.7106C31.391 20.6292 31.128 20.7544 31.0466 20.9923L29.8258 24.467L28.4359 23.9787L28.9493 22.52C29.0307 22.282 28.9055 22.0191 28.6675 21.9377C28.4296 21.8563 28.1667 21.9815 28.0853 22.2194L27.5719 23.6782L26.8644 23.4278L27.2213 20.3349C28.0352 20.1409 28.6425 19.4146 28.6425 18.5506C28.6425 17.8306 28.223 17.2108 27.6157 16.904L27.7096 16.0651C27.7472 15.7395 27.9288 15.4578 28.2042 15.2825ZM25.8752 18.5444C25.8752 18.031 26.2885 17.6178 26.7956 17.6178C27.309 17.6178 27.7222 18.0372 27.7222 18.5444C27.7222 19.0515 27.3027 19.4647 26.7956 19.4647C26.2885 19.471 25.8752 19.0578 25.8752 18.5444ZM28.1479 34.3465C28.054 34.6095 27.8662 34.8223 27.6157 34.9413C27.3653 35.0603 27.0836 35.079 26.8206 34.9851C26.5577 34.8912 26.3448 34.7034 26.2258 34.453C26.1069 34.2025 26.0881 33.9208 26.182 33.6578L28.5486 26.915L30.5145 27.6037L28.1479 34.3465ZM34.8407 27.6726C34.8031 27.7853 34.7217 27.8792 34.609 27.9292C34.5026 27.9793 34.3774 27.9856 34.2647 27.948L25.4119 24.8364C25.1803 24.755 25.0551 24.4984 25.1365 24.2604C25.2179 24.0288 25.4746 23.9036 25.7125 23.985L34.5652 27.0966C34.7968 27.1842 34.922 27.4409 34.8407 27.6726Z" fill="white"/>
<path d="M38.5102 23.377C37.6713 23.377 36.9951 24.0594 36.9951 24.8983C36.9951 25.7373 37.6775 26.4134 38.5102 26.4134C39.3492 26.4134 40.0316 25.731 40.0316 24.8983C40.0316 24.0594 39.3492 23.377 38.5102 23.377ZM38.5102 25.4994C38.1784 25.4994 37.9092 25.2301 37.9092 24.8983C37.9092 24.5665 38.1784 24.291 38.5102 24.291C38.842 24.291 39.1175 24.5602 39.1175 24.8983C39.1175 25.2301 38.842 25.4994 38.5102 25.4994Z" fill="white"/>
<path d="M35.4551 15.1206C36.5633 15.1206 37.4648 14.219 37.4648 13.1171C37.4648 12.009 36.5633 11.1074 35.4551 11.1074C34.347 11.1074 33.4517 12.009 33.4517 13.1171C33.4454 14.219 34.347 15.1206 35.4551 15.1206ZM35.4551 12.0152C36.0562 12.0152 36.5508 12.5098 36.5508 13.1109C36.5508 13.7119 36.0624 14.2002 35.4551 14.2002C34.8541 14.2002 34.3658 13.7119 34.3658 13.1109C34.3658 12.5098 34.8541 12.0152 35.4551 12.0152Z" fill="white"/>
</svg>
