<svg width="43" height="42" viewBox="0 0 43 42" fill="none" xmlns="http://www.w3.org/2000/svg">
<path d="M20.3307 10.7336C19.0176 10.7338 17.734 11.1234 16.6423 11.853C15.5506 12.5827 14.6997 13.6197 14.1974 14.833C13.695 16.0462 13.5636 17.3811 13.8199 18.669C14.0762 19.9569 14.7087 21.1398 15.6373 22.0683C16.5659 22.9967 17.7489 23.629 19.0368 23.8851C20.3247 24.1412 21.6597 24.0097 22.8728 23.5071C24.086 23.0045 25.1228 22.1535 25.8524 21.0617C26.5819 19.9699 26.9712 18.6862 26.9712 17.3731C26.9693 15.6126 26.269 13.9248 25.024 12.6801C23.7791 11.4354 22.0912 10.7353 20.3307 10.7336ZM20.3307 23.1746C19.1836 23.1746 18.0622 22.8344 17.1084 22.1971C16.1546 21.5598 15.4112 20.654 14.9722 19.5942C14.5333 18.5344 14.4184 17.3682 14.6422 16.2431C14.866 15.118 15.4184 14.0845 16.2295 13.2734C17.0407 12.4622 18.0741 11.9098 19.1992 11.686C20.3243 11.4622 21.4905 11.5771 22.5503 12.0161C23.6101 12.4551 24.516 13.1985 25.1533 14.1523C25.7906 15.1061 26.1307 16.2275 26.1307 17.3746C26.1286 18.9122 25.5169 20.3862 24.4296 21.4735C23.3424 22.5607 21.8684 23.1725 20.3307 23.1746ZM20.3307 12.8071C19.4277 12.8071 18.5449 13.0749 17.794 13.5766C17.0431 14.0783 16.4579 14.7914 16.1123 15.6258C15.7667 16.4601 15.6763 17.3782 15.8525 18.2639C16.0287 19.1496 16.4635 19.9632 17.1021 20.6017C17.7407 21.2403 18.5542 21.6752 19.44 21.8514C20.3257 22.0275 21.2437 21.9371 22.0781 21.5915C22.9124 21.2459 23.6255 20.6607 24.1272 19.9098C24.629 19.159 24.8967 18.2762 24.8967 17.3731C24.8954 16.1625 24.4139 15.0019 23.5579 14.1459C22.7019 13.2899 21.5413 12.8084 20.3307 12.8071ZM20.3307 21.1011C19.5933 21.1012 18.8723 20.8826 18.2591 20.4729C17.6459 20.0633 17.1679 19.481 16.8857 18.7997C16.6034 18.1184 16.5295 17.3686 16.6734 16.6453C16.8172 15.922 17.1723 15.2576 17.6938 14.7362C18.2153 14.2147 18.8797 13.8596 19.603 13.7157C20.3263 13.5719 21.076 13.6457 21.7573 13.928C22.4386 14.2103 23.0209 14.6882 23.4306 15.3015C23.8402 15.9147 24.0588 16.6356 24.0587 17.3731C24.0576 18.3615 23.6644 19.309 22.9655 20.0079C22.2666 20.7068 21.3191 21.0999 20.3307 21.1011ZM42.3257 23.6966C42.3249 23.3272 42.2202 22.9655 42.0236 22.6528C41.827 22.3401 41.5465 22.0889 41.2139 21.9281C40.8814 21.7672 40.5104 21.7031 40.1432 21.7431C39.7759 21.783 39.4274 21.9255 39.1372 22.1541C39.0209 21.7682 38.7924 21.4256 38.4808 21.17C38.1691 20.9143 37.7885 20.7572 37.3872 20.7186C37.9249 17.973 37.7917 15.1382 36.999 12.4552C36.2064 9.7721 34.7777 7.32005 32.8344 5.30741C30.8911 3.29477 28.4906 1.78104 25.8369 0.894863C23.1833 0.00868827 20.3549 -0.223733 17.5922 0.21735C14.8295 0.658434 12.2141 1.75998 9.96826 3.42838C7.72246 5.09678 5.91265 7.28271 4.69263 9.80039C3.4726 12.3181 2.87844 15.0931 2.96064 17.8896C3.04284 20.6861 3.79896 23.4214 5.16475 25.8631V33.2081C4.13075 32.4581 2.42325 32.7766 1.19775 34.0026C-0.124754 35.3246 -0.392754 37.2081 0.597746 38.2026C0.803601 38.4024 1.04737 38.559 1.31468 38.6632C1.582 38.7674 1.86746 38.817 2.15425 38.8091C2.31759 38.8088 2.48064 38.795 2.64175 38.7681C3.46288 38.6121 4.21563 38.2058 4.79675 37.6051C5.39722 37.024 5.80328 36.2715 5.95925 35.4506C5.98605 35.2908 5.99959 35.1291 5.99975 34.9671V27.2076C7.07435 28.7732 8.39862 30.1519 9.91975 31.2886C9.72891 31.4277 9.5492 31.5815 9.38225 31.7486C8.05975 33.0706 7.79175 34.9546 8.78225 35.9486C8.98909 36.1472 9.23345 36.3026 9.50106 36.4056C9.76866 36.5086 10.0541 36.5572 10.3407 36.5486C11.3431 36.5082 12.2903 36.0788 12.9812 35.3516C13.4808 34.8616 13.8497 34.2543 14.0542 33.5851C18.017 35.1132 22.4012 35.1421 26.3837 33.6666C26.983 34.8449 27.7663 35.9201 28.7042 36.8516V39.8241C28.7049 40.3328 28.9073 40.8206 29.267 41.1803C29.6268 41.54 30.1145 41.7424 30.6232 41.7431H38.3817C38.8905 41.7424 39.3782 41.54 39.738 41.1803C40.0977 40.8206 40.3001 40.3328 40.3007 39.8241V36.9031C41.4007 36.0531 41.8787 33.2941 41.8832 33.2646C42.4572 29.5731 42.3327 23.9971 42.3257 23.6966ZM13.3512 23.7191L6.00125 26.2096V24.0146C6.00122 23.9646 6.0171 23.9159 6.04658 23.8756C6.07606 23.8352 6.11762 23.8053 6.16525 23.7901L13.0422 21.5756C13.0776 21.5642 13.1152 21.5612 13.1519 21.5671C13.1886 21.573 13.2234 21.5875 13.2535 21.6094C13.2835 21.6312 13.3079 21.6599 13.3248 21.6931C13.3416 21.7263 13.3503 21.7629 13.3502 21.8001L13.3512 23.7191ZM5.13525 35.3121C5.00821 35.9609 4.68394 36.5546 4.20675 37.0121C3.74915 37.4892 3.15547 37.8134 2.50675 37.9406C2.27706 37.9953 2.03756 37.9938 1.80861 37.936C1.57966 37.8783 1.36804 37.7662 1.19175 37.6091C0.536746 36.9541 0.810246 35.5741 1.79175 34.5951C2.32761 34.0262 3.06142 33.6847 3.84175 33.6411C4.01824 33.6335 4.19448 33.6612 4.36017 33.7225C4.52585 33.7838 4.67767 33.8775 4.80675 33.9981C4.9631 34.1746 5.0746 34.3862 5.13178 34.6149C5.18897 34.8436 5.19015 35.0828 5.13525 35.3121ZM6.76275 26.8341L13.3512 24.6016V30.9516C13.0895 30.7715 12.7941 30.646 12.4828 30.5829C12.1714 30.5197 11.8505 30.5201 11.5392 30.5841C11.2559 30.6325 10.9795 30.7153 10.7162 30.8306C9.18004 29.7338 7.8429 28.3821 6.76275 26.8341ZM13.3212 33.0581C13.194 33.7068 12.8698 34.3004 12.3927 34.7581C11.4137 35.7366 10.0337 36.0081 9.37875 35.3556C8.72375 34.7031 8.99725 33.3201 9.97625 32.3416C10.4336 31.8641 11.0274 31.5398 11.6762 31.4131C11.7906 31.3936 11.9063 31.3835 12.0222 31.3831C12.1996 31.3758 12.3766 31.404 12.5429 31.4659C12.7092 31.5279 12.8615 31.6225 12.9907 31.7441C13.1476 31.9203 13.2595 32.1318 13.317 32.3606C13.3746 32.5894 13.376 32.8286 13.3212 33.0581ZM20.3297 33.9131C18.2265 33.9165 16.1421 33.5163 14.1897 32.7341C14.1897 32.7266 14.1897 32.7191 14.1897 32.7116V21.8001C14.1898 21.6309 14.1498 21.464 14.0731 21.3131C13.9964 21.1623 13.8851 21.0317 13.7483 20.932C13.6115 20.8323 13.4531 20.7664 13.286 20.7396C13.1189 20.7127 12.9479 20.7258 12.7867 20.7776L5.90975 22.9926C5.69857 23.0602 5.5136 23.1917 5.38041 23.3689C5.24722 23.5462 5.17238 23.7605 5.16625 23.9821C4.12657 21.5932 3.66597 18.9924 3.82197 16.3917C3.97797 13.791 4.74616 11.2639 6.06394 9.01639C7.38173 6.76886 9.21184 4.86443 11.4052 3.45827C13.5985 2.05211 16.093 1.18399 18.6854 0.924652C21.2779 0.665309 23.8949 1.02208 26.3233 1.96589C28.7517 2.9097 30.9228 4.41385 32.6597 6.3558C34.3966 8.29775 35.6502 10.6226 36.3183 13.1408C36.9864 15.6591 37.0501 18.2995 36.5042 20.8471C36.3108 20.9258 36.1309 21.0345 35.9712 21.1691L35.9757 16.7226C35.9757 15.2446 35.2372 14.3971 33.9487 14.3971C33.6996 14.3891 33.4514 14.4319 33.2193 14.5229C32.9872 14.614 32.776 14.7513 32.5987 14.9266C32.4667 15.0601 32.3543 15.2116 32.2647 15.3766C32.078 15.1627 31.8473 14.9916 31.5885 14.8749C31.3296 14.7581 31.0487 14.6985 30.7647 14.7001C30.2283 14.7009 29.7141 14.9139 29.3343 15.2927C28.9544 15.6715 28.74 16.1852 28.7377 16.7216C28.7337 16.8761 28.6472 20.1936 28.5722 23.2681C28.2383 22.9408 27.7899 22.7566 27.3222 22.7546C27.0449 22.7632 26.7732 22.8353 26.5281 22.9653C26.283 23.0953 26.0709 23.2798 25.9082 23.5046C25.5063 24.0828 25.308 24.7783 25.3447 25.4816V29.8786C25.3764 30.9215 25.6115 31.9483 26.0367 32.9011C24.2096 33.5733 22.2776 33.9159 20.3307 33.9131H20.3297ZM38.3797 40.9056H30.6282C30.3416 40.9052 30.0668 40.7911 29.8641 40.5884C29.6615 40.3856 29.5475 40.1108 29.5472 39.8241V37.0926H39.4627V39.8241C39.4625 40.1108 39.3485 40.3856 39.1459 40.5884C38.9432 40.7911 38.6684 40.9052 38.3817 40.9056H38.3797ZM41.0537 33.1361C40.9412 33.8581 40.3872 35.8406 39.7712 36.2546H29.2977C27.4842 34.4711 26.1807 31.8156 26.1807 29.8796V25.4796C26.143 24.9613 26.2809 24.4454 26.5722 24.0151C26.6575 23.8915 26.7702 23.7893 26.9015 23.7165C27.0329 23.6438 27.1793 23.6024 27.3292 23.5956H27.3377C27.8982 23.5956 28.5042 24.1756 28.5182 25.4546C28.5193 25.5644 28.5635 25.6694 28.6414 25.7469C28.7192 25.8244 28.8244 25.8681 28.9342 25.8686H28.9372C29.0466 25.8686 29.1516 25.8258 29.2299 25.7494C29.3081 25.673 29.3533 25.5689 29.3557 25.4596C29.4362 21.9866 29.5722 16.7931 29.5737 16.7411V16.7301C29.5741 16.4149 29.6995 16.1127 29.9224 15.8898C30.1453 15.6669 30.4475 15.5415 30.7627 15.5411C30.9167 15.5411 31.0692 15.5719 31.2111 15.6315C31.3531 15.6911 31.4818 15.7784 31.5897 15.8883C31.6975 15.9982 31.7824 16.1285 31.8393 16.2716C31.8963 16.4147 31.9241 16.5676 31.9212 16.7216V26.2896C31.9193 26.3458 31.9287 26.4018 31.9489 26.4543C31.969 26.5068 31.9996 26.5547 32.0386 26.5952C32.0777 26.6356 32.1245 26.6678 32.1763 26.6898C32.2281 26.7117 32.2838 26.7231 32.34 26.7231C32.3962 26.7231 32.4519 26.7117 32.5037 26.6898C32.5555 26.6678 32.6023 26.6356 32.6413 26.5952C32.6804 26.5547 32.711 26.5068 32.7311 26.4543C32.7513 26.4018 32.7607 26.3458 32.7587 26.2896V16.7231C32.7587 16.5731 32.7982 15.2356 33.9502 15.2356C34.2447 15.2356 35.1397 15.2356 35.1397 16.7226L35.1332 27.7291C35.1313 27.7853 35.1407 27.8413 35.1609 27.8938C35.181 27.9463 35.2116 27.9942 35.2506 28.0347C35.2897 28.0751 35.3365 28.1073 35.3883 28.1293C35.4401 28.1512 35.4958 28.1626 35.552 28.1626C35.6082 28.1626 35.6639 28.1512 35.7157 28.1293C35.7674 28.1073 35.8143 28.0751 35.8533 28.0347C35.8924 27.9942 35.923 27.9463 35.9431 27.8938C35.9633 27.8413 35.9727 27.7853 35.9707 27.7291V23.0721V23.0691C35.9367 22.7061 36.0456 22.3442 36.2742 22.0602C36.5029 21.7763 36.8333 21.5927 37.1952 21.5486C37.5106 21.5489 37.813 21.6743 38.0361 21.8973C38.2591 22.1203 38.3845 22.4227 38.3847 22.7381V28.4801C38.3828 28.5363 38.3922 28.5923 38.4124 28.6448C38.4325 28.6973 38.4631 28.7452 38.5021 28.7857C38.5412 28.8261 38.588 28.8583 38.6398 28.8803C38.6916 28.9022 38.7473 28.9136 38.8035 28.9136C38.8597 28.9136 38.9154 28.9022 38.9672 28.8803C39.019 28.8583 39.0658 28.8261 39.1048 28.7857C39.1439 28.7452 39.1745 28.6973 39.1946 28.6448C39.2148 28.5923 39.2242 28.5363 39.2222 28.4801V23.7021C39.2285 23.4058 39.3505 23.1237 39.5623 22.9164C39.7741 22.709 40.0586 22.5929 40.355 22.5929C40.6514 22.5929 40.9359 22.709 41.1477 22.9164C41.3594 23.1237 41.4815 23.4058 41.4877 23.7021V23.7121C41.4892 23.7691 41.6212 29.4956 41.0557 33.1361H41.0537Z" fill="white"/>
</svg>
