<svg width="40" height="40" viewBox="0 0 40 40" fill="none" xmlns="http://www.w3.org/2000/svg">
<path d="M29.7591 13.5884C29.7266 13.5884 29.6936 13.5851 29.6604 13.5779C29.4073 13.5237 29.246 13.2746 29.3003 13.0213C30.1178 9.20543 29.777 6.10765 28.3148 4.06278C27.704 3.20872 27.0249 2.70893 26.5508 2.43603V3.08497C26.5508 3.34381 26.341 3.55372 26.082 3.55372C25.8231 3.55372 25.6133 3.34381 25.6133 3.08497V1.70309C25.6133 1.5545 25.6838 1.41462 25.8033 1.32622C25.9228 1.23781 26.0772 1.21147 26.2194 1.25487C26.2842 1.27475 27.8218 1.76159 29.0773 3.51753C30.2068 5.09712 31.3214 8.06225 30.2169 13.2177C30.1699 13.4378 29.9755 13.5884 29.7591 13.5884Z" fill="white"/>
<path d="M29.7588 13.5873C29.5727 13.5873 29.3967 13.4759 29.3233 13.2925L28.1762 10.4242C28.0801 10.1838 28.197 9.91101 28.4374 9.81482C28.6779 9.71882 28.9506 9.83573 29.0467 10.076L30.1938 12.9443C30.2899 13.1847 30.173 13.4575 29.9326 13.5537C29.8756 13.5765 29.8166 13.5873 29.7588 13.5873Z" fill="white"/>
<path d="M26.6956 11.4078C26.5831 11.4078 26.4724 11.3673 26.3854 11.2907C26.2573 11.1776 26.2008 11.004 26.2379 10.8373L26.5072 9.62791L24.1068 10.5674C23.9532 10.6274 23.7801 10.6025 23.6497 10.5021C23.5194 10.4017 23.4514 10.2403 23.4703 10.0768L23.5505 9.3866C21.9057 10.1505 17.852 11.2758 10.8198 8.77778C10.5758 8.69116 10.4483 8.42313 10.535 8.17919C10.6216 7.93525 10.8895 7.80766 11.1336 7.89438C15.7426 9.53153 18.956 9.51147 20.8403 9.20632C22.8667 8.8781 23.8267 8.15922 23.8362 8.15191C23.9857 8.03772 24.1898 8.02319 24.3534 8.11628C24.517 8.20938 24.61 8.39022 24.5884 8.57707L24.4916 9.41013L26.9855 8.4341C27.147 8.371 27.3299 8.40213 27.4612 8.51463C27.5928 8.62732 27.6515 8.80338 27.6139 8.9725L27.3381 10.2111L28.4541 9.81129C28.6981 9.72391 28.9662 9.85075 29.0535 10.0945C29.1409 10.3383 29.014 10.6066 28.7703 10.6939L26.8537 11.3806C26.802 11.3988 26.7486 11.4078 26.6956 11.4078Z" fill="white"/>
<path d="M10.9764 8.80406C10.9123 8.80406 10.8472 8.79075 10.7848 8.76291C10.5486 8.65687 10.443 8.37956 10.549 8.14331C12.8863 2.93437 17.0543 1.72116 20.1393 1.62066C23.4379 1.51369 26.1464 2.60503 26.2601 2.65162C26.4998 2.74959 26.6145 3.02334 26.5165 3.26297C26.4186 3.50241 26.1455 3.61744 25.9055 3.51947C25.8792 3.50878 23.2414 2.45016 20.1409 2.55872C16.0569 2.70103 13.1175 4.70916 11.4044 8.52722C11.3264 8.70094 11.1554 8.80406 10.9764 8.80406Z" fill="white"/>
<path d="M13.8351 9.6629C13.7477 9.6629 13.6593 9.63852 13.5805 9.58743C13.3633 9.44662 13.3013 9.15637 13.4422 8.93915C15.8733 5.18896 20.5769 4.33546 22.4399 4.72762C22.6932 4.78096 22.8554 5.02949 22.802 5.2829C22.7488 5.53621 22.5007 5.69868 22.2467 5.64496C20.4934 5.27587 16.3147 6.23137 14.2289 9.44905C14.1391 9.58762 13.9886 9.6629 13.8351 9.6629Z" fill="white"/>
<path d="M21.4548 24.2294C17.2433 24.2294 13.8169 20.803 13.8169 16.5915V9.30273C13.8169 9.04389 14.0268 8.83398 14.2856 8.83398C14.5445 8.83398 14.7544 9.04389 14.7544 9.30273V16.5915C14.7544 20.2862 17.7602 23.2919 21.4548 23.2919C25.1494 23.2919 28.1552 20.2861 28.1552 16.5915V10.3545C28.1043 10.1331 28.2209 9.90142 28.4386 9.81461C28.6787 9.71861 28.9517 9.83598 29.0476 10.0764L29.0593 10.1057C29.0813 10.1609 29.0926 10.2199 29.0926 10.2793V16.5914C29.0927 20.803 25.6663 24.2294 21.4548 24.2294Z" fill="white"/>
<path d="M24.2183 39.4066C24.0077 39.4066 23.8163 39.2638 23.7635 39.0501L21.2188 28.7376C21.1569 28.4862 21.3103 28.2322 21.5616 28.1701C21.8128 28.1077 22.067 28.2616 22.129 28.5129L24.6737 38.8254C24.7357 39.0768 24.5822 39.3308 24.3309 39.3929C24.2932 39.4022 24.2554 39.4066 24.2183 39.4066Z" fill="white"/>
<path d="M19.5318 39.4065C19.5002 39.4065 19.4681 39.4033 19.436 39.3966C19.1825 39.3439 19.0197 39.0958 19.0724 38.8423L21.2152 28.5298C21.2679 28.2764 21.5153 28.1133 21.7696 28.1662C22.023 28.2189 22.1857 28.467 22.1332 28.7205L19.9903 39.033C19.9443 39.2543 19.7493 39.4065 19.5318 39.4065Z" fill="white"/>
<path d="M38.8169 39.4063H4.53125C4.27241 39.4063 4.0625 39.1965 4.0625 38.9376C4.0625 36.1291 5.69797 31.3651 8.65503 30.0977L13.6918 27.9391C15.4888 27.169 17.7728 24.2891 18.6714 23.0867C18.8263 22.8794 19.1201 22.8368 19.3275 22.9918C19.5349 23.1467 19.5774 23.4405 19.4224 23.6479C18.2501 25.2166 15.9946 27.9722 14.0611 28.8008L9.02431 30.9594C6.87781 31.8793 5.18741 35.6189 5.01453 38.4688H38.3336C38.1606 35.619 36.4703 31.8793 34.3238 30.9594L29.2869 28.8008C26.8475 27.7555 24.8665 25.8614 23.7086 23.468C23.5959 23.2349 23.6934 22.9545 23.9263 22.8418C24.1596 22.729 24.4397 22.8266 24.5525 23.0596C25.6121 25.2497 27.4245 26.9827 29.6562 27.939L34.6931 30.0976C37.6502 31.365 39.2856 36.129 39.2856 38.9375C39.2857 39.1965 39.0759 39.4063 38.8169 39.4063Z" fill="white"/>
<path d="M18.5938 31.9063C18.5652 31.9063 18.5365 31.9038 18.5079 31.8984C18.3634 31.8715 18.2399 31.7783 18.1743 31.6466L15.7837 26.8497C15.6683 26.618 15.7624 26.3365 15.9941 26.2211C16.2257 26.1056 16.5072 26.1999 16.6227 26.4315L18.7363 30.6726L20.9935 28.6118L17.5301 25.193C17.3459 25.0111 17.344 24.7144 17.5259 24.5301C17.7079 24.3458 18.0046 24.344 18.1888 24.5258L22.0035 28.2914C22.095 28.3818 22.1454 28.5056 22.1428 28.6342C22.1404 28.7626 22.0852 28.8845 21.9902 28.9712L18.9099 31.7837C18.8228 31.8633 18.7098 31.9063 18.5938 31.9063Z" fill="white"/>
<path d="M25.1561 31.9062C25.0501 31.9062 24.9459 31.8702 24.8615 31.8022L21.3794 28.9897C21.2759 28.9061 21.2129 28.7826 21.2058 28.6498C21.1986 28.5171 21.2484 28.3875 21.3424 28.2936L24.903 24.733C25.0859 24.5499 25.3829 24.5499 25.5658 24.733C25.7489 24.916 25.7489 25.2128 25.5658 25.3958L22.3739 28.5877L24.9572 30.6743L26.5534 26.6968C26.6499 26.4565 26.9229 26.3399 27.1631 26.4364C27.4034 26.5328 27.52 26.8057 27.4235 27.046L25.591 31.612C25.5356 31.75 25.4179 31.8535 25.2741 31.8911C25.2352 31.9012 25.1955 31.9062 25.1561 31.9062Z" fill="white"/>
<path d="M28.4706 39.4066C28.3902 39.4066 28.3086 39.3858 28.2342 39.3422C28.0108 39.2113 27.9358 38.9242 28.0666 38.7008L29.1949 36.7744L26.6064 35.365C26.453 35.2815 26.3587 35.1197 26.3619 34.9451C26.3649 34.7706 26.4647 34.612 26.6209 34.534L29.5956 33.0467L28.8656 28.393C28.8255 28.1373 29.0003 27.8975 29.256 27.8574C29.5114 27.817 29.7516 27.9922 29.7917 28.2478L30.5749 33.24C30.6066 33.4416 30.5041 33.6405 30.3215 33.7318L27.8433 34.9709L30.068 36.1822C30.1794 36.2428 30.2615 36.346 30.2955 36.4683C30.3296 36.5905 30.3125 36.7213 30.2484 36.8308L28.8756 39.1746C28.7883 39.3235 28.6316 39.4066 28.4706 39.4066Z" fill="white"/>
<path d="M14.8772 39.4063C14.6933 39.4063 14.5187 39.2974 14.444 39.1169L13.473 36.7732C13.3854 36.562 13.4632 36.3184 13.6567 36.1969L15.5624 34.9996L13.0268 33.7317C12.8442 33.6404 12.7417 33.4416 12.7733 33.2399L13.5564 28.2418C13.5966 27.986 13.8368 27.8115 14.0921 27.8514C14.348 27.8915 14.5227 28.1312 14.4827 28.3871L13.7525 33.0465L16.7272 34.5339C16.8787 34.6096 16.9775 34.7611 16.9857 34.9303C16.994 35.0996 16.9103 35.26 16.7669 35.3501L14.4905 36.7801L15.3099 38.7582C15.409 38.9974 15.2955 39.2716 15.0563 39.3706C14.9978 39.3949 14.937 39.4063 14.8772 39.4063Z" fill="white"/>
<path d="M33.5938 39.4062C33.3348 39.4062 33.125 39.1964 33.125 38.9375V36.125C33.125 35.8661 33.3348 35.6562 33.5938 35.6562C33.8527 35.6562 34.0625 35.8661 34.0625 36.125V38.9375C34.0625 39.1964 33.8526 39.4062 33.5938 39.4062Z" fill="white"/>
<path d="M9.21875 39.4062C8.95991 39.4062 8.75 39.1964 8.75 38.9375V36.125C8.75 35.8661 8.95991 35.6562 9.21875 35.6562C9.47759 35.6562 9.6875 35.8661 9.6875 36.125V38.9375C9.6875 39.1964 9.47759 39.4062 9.21875 39.4062Z" fill="white"/>
<path d="M1.71875 14.5625C2.23652 14.5625 2.65625 14.1428 2.65625 13.625C2.65625 13.1072 2.23652 12.6875 1.71875 12.6875C1.20098 12.6875 0.78125 13.1072 0.78125 13.625C0.78125 14.1428 1.20098 14.5625 1.71875 14.5625Z" fill="white"/>
<path d="M7.34375 2.375C7.86152 2.375 8.28125 1.95527 8.28125 1.4375C8.28125 0.919733 7.86152 0.5 7.34375 0.5C6.82598 0.5 6.40625 0.919733 6.40625 1.4375C6.40625 1.95527 6.82598 2.375 7.34375 2.375Z" fill="white"/>
<path d="M34.5312 3.3125C35.049 3.3125 35.4688 2.89277 35.4688 2.375C35.4688 1.85723 35.049 1.4375 34.5312 1.4375C34.0135 1.4375 33.5938 1.85723 33.5938 2.375C33.5938 2.89277 34.0135 3.3125 34.5312 3.3125Z" fill="white"/>
<path d="M37.3438 24.875C37.8615 24.875 38.2812 24.4553 38.2812 23.9375C38.2812 23.4197 37.8615 23 37.3438 23C36.826 23 36.4062 23.4197 36.4062 23.9375C36.4062 24.4553 36.826 24.875 37.3438 24.875Z" fill="white"/>
<path d="M5.46875 24.4062C3.65947 24.4062 2.1875 22.9343 2.1875 21.125C2.1875 19.3157 3.65947 17.8438 5.46875 17.8438C7.27803 17.8438 8.75 19.3157 8.75 21.125C8.75 22.9343 7.27803 24.4062 5.46875 24.4062ZM5.46875 18.7812C4.17641 18.7812 3.125 19.8327 3.125 21.125C3.125 22.4173 4.17641 23.4688 5.46875 23.4688C6.76109 23.4688 7.8125 22.4173 7.8125 21.125C7.8125 19.8327 6.76109 18.7812 5.46875 18.7812Z" fill="white"/>
<path d="M36.4062 15.9688C35.1139 15.9688 34.0625 14.9173 34.0625 13.625C34.0625 12.3327 35.1139 11.2812 36.4062 11.2812C37.6986 11.2812 38.75 12.3327 38.75 13.625C38.75 14.9173 37.6986 15.9688 36.4062 15.9688ZM36.4062 12.2188C35.6308 12.2188 35 12.8496 35 13.625C35 14.4004 35.6308 15.0312 36.4062 15.0312C37.1817 15.0312 37.8125 14.4004 37.8125 13.625C37.8125 12.8496 37.1817 12.2188 36.4062 12.2188Z" fill="white"/>
<path d="M23.8203 15.5C24.3381 15.5 24.7578 15.0803 24.7578 14.5625C24.7578 14.0447 24.3381 13.625 23.8203 13.625C23.3025 13.625 22.8828 14.0447 22.8828 14.5625C22.8828 15.0803 23.3025 15.5 23.8203 15.5Z" fill="white"/>
<path d="M19.1328 15.5C19.6506 15.5 20.0703 15.0803 20.0703 14.5625C20.0703 14.0447 19.6506 13.625 19.1328 13.625C18.615 13.625 18.1953 14.0447 18.1953 14.5625C18.1953 15.0803 18.615 15.5 19.1328 15.5Z" fill="white"/>
<path d="M21.4351 19.7176C20.7906 19.7176 20.1465 19.4723 19.6559 18.9818C19.4728 18.7987 19.4728 18.5019 19.6559 18.3189C19.8389 18.1359 20.1358 18.1358 20.3188 18.3189C20.9342 18.9344 21.9359 18.9344 22.5514 18.3189C22.7345 18.1359 23.0312 18.1358 23.2143 18.3189C23.3973 18.502 23.3973 18.7987 23.2142 18.9818C22.7238 19.4723 22.0793 19.7176 21.4351 19.7176Z" fill="white"/>
<path d="M14.2816 13.7422C14.1429 13.7422 14.0056 13.6809 13.9131 13.5636C13.7529 13.3602 13.7878 13.0655 13.9912 12.9053L18.3037 9.50682C18.5071 9.3466 18.8018 9.38157 18.962 9.58492C19.1222 9.78826 19.0872 10.083 18.8839 10.2432L14.5714 13.6417C14.4855 13.7094 14.3831 13.7422 14.2816 13.7422Z" fill="white"/>
</svg>
