<svg width="42" height="34" viewBox="0 0 42 34" fill="none" xmlns="http://www.w3.org/2000/svg">
<path d="M32.9552 13.8576H34.3652C35.1114 13.8576 35.1114 12.7363 34.3652 12.7363H32.9552C32.2089 12.7363 32.2089 13.8576 32.9552 13.8576Z" fill="white"/>
<path d="M41.0625 21.7512H39.1613V21.0125C39.1613 20.2362 38.5312 19.6062 37.755 19.6062H34.2225V18.5825H35.9212C38.1787 18.5825 40.0125 16.7563 40.0125 14.51V10.8688C40.0125 10.4825 39.6975 10.1675 39.3075 10.1675H37.845V8.10125C37.845 5.98625 36.12 4.26875 33.9975 4.26875H33.3187C31.1962 4.26875 29.4712 5.98625 29.4712 8.10125V10.1675H28.0088C27.6188 10.1675 27.3037 10.4825 27.3037 10.8688V14.51C27.3037 16.7563 29.1375 18.5825 31.395 18.5825H33.0938V19.6062H29.565C28.7887 19.6062 28.1587 20.2362 28.1587 21.0125V21.7512H23.8688C23.8763 20.615 23.8575 19.3888 23.685 18.6725C23.1375 15.455 20.7675 13.2125 17.6475 12.2562C22.8 9.5075 21.4875 0.52625 14.6588 0.5C7.845 0.54875 6.58125 9.47375 11.565 12.215C10.35 12.59 9.24 13.1975 8.32125 14.03C6.00375 15.8675 5.44875 18.815 5.4225 21.755H0.9375C0.62625 21.755 0.375 22.0063 0.375 22.3175V25.4412C0.375 25.7525 0.62625 26.0037 0.9375 26.0037H2.41125V33.1813C2.41125 33.4925 2.6625 33.7438 2.97375 33.7438H39.0262C39.3375 33.7438 39.5887 33.4925 39.5887 33.1813V26.0037H41.0625C41.3737 26.0037 41.625 25.7525 41.625 25.4412V22.3175C41.625 22.0063 41.3737 21.755 41.0625 21.755V21.7512ZM33.3225 5.39H34.0013C35.5013 5.39 36.7238 6.605 36.7238 8.0975V10.1637H30.6V8.0975C30.6 6.605 31.8225 5.39 33.3225 5.39ZM30.6 11.2887H36.7238V13.7562C36.7238 14.6075 36.0262 15.3013 35.1712 15.3013H32.1562C31.2975 15.3013 30.6038 14.6075 30.6038 13.7562V11.2887H30.6ZM31.3988 17.4575C29.7638 17.4575 28.4363 16.1337 28.4363 14.5062V11.2887H29.475V13.7562C29.475 15.2262 30.675 16.4263 32.1525 16.4263H35.1675C36.645 16.4263 37.845 15.23 37.845 13.7562V11.2887H38.8838V14.5062C38.8838 16.1337 37.5563 17.4575 35.9212 17.4575H31.395H31.3988ZM40.5 24.875H1.5V22.8762H40.5V24.875ZM38.4637 32.615H3.53625V26H38.4637V32.615ZM9.0675 14.8737C13.2338 11.0825 21.5888 12.95 22.5825 18.8787C22.7437 19.7525 22.7513 20.5025 22.7475 21.7512H6.55125C6.5775 19.0887 7.06125 16.4563 9.0375 14.9C9.04875 14.8925 9.05625 14.885 9.0675 14.8737ZM14.6625 1.62125C21.12 1.6475 21.3038 11.1462 15.3225 11.81C14.8575 11.7725 14.3962 11.7725 13.9387 11.795C7.99875 11.0487 8.2575 1.66625 14.6625 1.62125ZM29.2837 21.0125C29.2837 20.855 29.4112 20.7312 29.565 20.7312H37.755C37.9125 20.7312 38.0363 20.8587 38.0363 21.0125V21.7512H29.2837V21.0125Z" fill="white"/>
</svg>
