<svg width="39" height="40" viewBox="0 0 39 40" fill="none" xmlns="http://www.w3.org/2000/svg">
<path d="M13.1298 31.7402H9.36322C8.99177 31.7402 8.69092 32.0428 8.69092 32.4125V34.8765C8.69092 35.0816 8.78504 35.2765 8.94639 35.4043L10.8305 36.8917C10.9532 36.9875 11.1011 37.0363 11.2473 37.0363C11.3936 37.0363 11.5415 36.9875 11.6642 36.89L13.5466 35.4026C13.7079 35.2765 13.8021 35.0816 13.8021 34.8765V32.4125C13.8021 32.0428 13.5012 31.7402 13.1298 31.7402ZM12.4575 34.5521L11.2473 35.5068L10.0355 34.5504V33.0865H12.4575V34.5521Z" fill="white"/>
<path d="M27.4348 21.932L24.6447 21.2362C24.5506 21.1706 24.4666 21.0866 24.3876 20.9975C24.3556 20.9622 24.3187 20.9353 24.2901 20.8967C24.0649 20.6009 23.9136 20.2462 23.8262 19.9739C27.1692 16.3251 28.3088 9.45922 28.3726 9.06593C28.376 9.04576 28.3693 9.02559 28.3693 9.00542C28.3709 8.98861 28.3777 8.97517 28.3777 8.95836L28.3659 6.00866C30.9374 5.38678 32.2081 4.55145 32.2081 3.45729C32.2064 0.72272 23.7237 0 19.2378 0C14.7519 0 6.26917 0.72272 6.26917 3.45729C6.26917 4.53633 7.56671 5.39014 10.0962 6.00866V8.96004C10.0962 8.97853 10.1046 8.99366 10.1063 9.01214C10.108 9.03063 10.1013 9.04744 10.1046 9.06593C10.1668 9.45922 11.308 16.3335 14.6561 19.9807C14.5317 20.3639 14.2762 20.9269 13.8661 21.2278L11.0442 21.9303C5.08257 23.4111 0.650451 28.4987 0.0134491 34.5947C-0.104203 35.741 0.55969 36.8284 1.62696 37.2369C6.25909 39.0184 12.5115 40 19.2344 40C19.2361 40 19.2361 40 19.2378 40C19.2395 40 19.2395 40 19.2411 40C21.248 40 23.2027 39.9025 25.0935 39.7328C25.0952 39.7328 25.0985 39.7311 25.1002 39.7311C29.5458 39.3311 33.5997 38.4856 36.8469 37.2352C37.9176 36.8251 38.5798 35.736 38.4604 34.5914C37.8268 28.502 33.3947 23.4127 27.4348 21.932ZM16.4814 23.0884L15.1385 21.8547C15.3838 21.569 15.5754 21.258 15.7116 20.9656C16.7184 21.7354 17.8831 22.2194 19.2361 22.2194C20.5908 22.2194 21.7555 21.7354 22.7623 20.9656C22.8984 21.258 23.09 21.569 23.3354 21.8547L21.9925 23.0884C21.2396 23.7792 20.8059 24.7657 20.8059 25.7927V27.0163C20.8059 27.3322 20.7505 27.6196 20.6328 27.9037C20.3588 28.5945 19.7302 30.3576 19.2344 32.8283C18.7403 30.3576 18.11 28.5911 17.8344 27.9003C17.7083 27.5877 17.6461 27.3003 17.6461 27.0163V25.7927C17.6512 24.7741 17.2276 23.7892 16.4814 23.0884ZM26.8936 9.63234C26.354 12.2677 24.2111 20.8748 19.2378 20.8748C14.2712 20.8748 12.1232 12.2677 11.582 9.63234H26.8936ZM11.4408 8.28774V5.14307C13.3417 4.76827 20.1672 3.63881 27.0196 5.13467L27.0314 8.28942L11.4408 8.28774ZM7.61377 3.46233C7.76504 2.74297 12.0072 1.34459 19.2378 1.34459C26.4717 1.34459 30.7122 2.74465 30.8652 3.45393C30.8635 3.46065 30.6299 4.0321 28.3625 4.6254V4.59347C28.3609 4.28253 28.1474 4.01361 27.8449 3.94134C19.3336 1.91773 10.9652 3.85899 10.6139 3.94134C10.3114 4.01361 10.0962 4.28421 10.0962 4.59515V4.62372C8.16673 4.11446 7.64234 3.58166 7.61377 3.46233ZM1.34964 34.7359C1.92782 29.2012 5.95319 24.5809 11.3669 23.2363L13.9535 22.5909L15.567 24.0733C16.036 24.517 16.3066 25.1439 16.3066 25.7927V27.0163C16.3066 27.4751 16.4007 27.9306 16.5906 28.4029C17.0259 29.4954 18.3941 33.3779 18.5403 38.6436C12.2459 38.5781 6.43053 37.6453 2.10934 35.9847C1.59671 35.7881 1.29249 35.2855 1.34964 34.7359ZM29.6382 37.7781C28.3962 37.9999 27.107 38.1831 25.7692 38.3209V36.4368H29.6382V37.7781ZM36.3662 35.9847C34.7628 36.6015 32.9476 37.1142 30.9845 37.5243V35.7628C30.9845 35.3914 30.682 35.0905 30.3122 35.0905H25.0969C24.7254 35.0905 24.4246 35.3931 24.4246 35.7628V38.447C22.9657 38.5646 21.4648 38.6285 19.9353 38.6436C20.0815 33.3779 21.4496 29.4954 21.8816 28.4079C22.0631 27.9642 22.1522 27.5087 22.1522 27.0163V25.7927C22.1522 25.1406 22.4245 24.5153 22.9018 24.0783L24.5204 22.5909L27.1087 23.2363C32.5224 24.5809 36.5461 29.2012 37.1259 34.7342C37.1848 35.2855 36.8789 35.7881 36.3662 35.9847Z" fill="white"/>
</svg>
