<svg width="36" height="42" viewBox="0 0 36 42" fill="none" xmlns="http://www.w3.org/2000/svg">
<path d="M22.7926 25.7991C22.8359 25.8117 22.8807 25.8181 22.9258 25.8179C23.0352 25.8177 23.1416 25.7817 23.2286 25.7153C23.3157 25.6489 23.3785 25.5559 23.4076 25.4504C23.7275 24.2962 24.4144 23.2775 25.3645 22.5482C26.3146 21.8189 27.4762 21.4188 28.6739 21.4082C29.8715 21.3976 31.0401 21.7772 32.0029 22.4895C32.9658 23.2018 33.6705 24.2083 34.0108 25.3566C34.0481 25.4838 34.1343 25.591 34.2506 25.6545C34.367 25.7181 34.5037 25.7328 34.6309 25.6955C34.7581 25.6582 34.8653 25.5719 34.9288 25.4556C34.9924 25.3393 35.0071 25.2026 34.9698 25.0754C34.567 23.7191 33.7338 22.5308 32.596 21.6899C31.4582 20.8491 30.0777 20.4013 28.663 20.4143C27.2482 20.4274 25.8762 20.9004 24.754 21.7621C23.6319 22.6238 22.8207 23.8273 22.4429 25.1907C22.4098 25.3177 22.4279 25.4526 22.4933 25.5664C22.5587 25.6802 22.6662 25.7638 22.7926 25.7991Z" fill="white"/>
<path d="M10.5648 24.0239C10.6354 24.0244 10.7053 24.01 10.7699 23.9815C10.8346 23.9531 10.8925 23.9113 10.9398 23.8589L12.8542 21.7336C12.9014 21.6854 12.9384 21.6281 12.9629 21.5652C12.9874 21.5023 12.9989 21.4351 12.9968 21.3677C12.9946 21.3002 12.9789 21.2338 12.9505 21.1726C12.9221 21.1114 12.8815 21.0566 12.8314 21.0114C12.7812 20.9662 12.7224 20.9317 12.6586 20.9098C12.5947 20.8879 12.5271 20.8792 12.4598 20.8842C12.3925 20.8891 12.3268 20.9076 12.2669 20.9385C12.2069 20.9695 12.1538 21.0122 12.1107 21.0642L10.5676 22.7771L9.02448 21.0642C8.98144 21.0122 8.92834 20.9695 8.86835 20.9385C8.80837 20.9076 8.74274 20.8891 8.67543 20.8842C8.60811 20.8792 8.54049 20.8879 8.47663 20.9098C8.41277 20.9317 8.35399 20.9662 8.30383 21.0114C8.25367 21.0566 8.21316 21.1114 8.18473 21.1726C8.15631 21.2338 8.14056 21.3002 8.13843 21.3677C8.1363 21.4351 8.14784 21.5023 8.17235 21.5652C8.19685 21.6281 8.23383 21.6854 8.28104 21.7336L10.1954 23.8589C10.2421 23.9107 10.299 23.9521 10.3627 23.9805C10.4263 24.0089 10.4951 24.0237 10.5648 24.0239Z" fill="white"/>
<path d="M5.16912 12.5265V13.5296C5.16986 14.531 5.44907 15.5124 5.97555 16.3642C6.50203 17.216 7.25502 17.9046 8.15037 18.353V19.464C8.15595 19.5929 8.21109 19.7147 8.30427 19.8039C8.39746 19.8931 8.5215 19.9429 8.65053 19.9429C8.77955 19.9429 8.90359 19.8931 8.99678 19.8039C9.08996 19.7147 9.1451 19.5929 9.15068 19.464V18.7365C10.0766 18.989 11.0532 18.989 11.9791 18.7365V19.464C11.9847 19.5929 12.0398 19.7147 12.133 19.8039C12.2262 19.8931 12.3503 19.9429 12.4793 19.9429C12.6083 19.9429 12.7323 19.8931 12.8255 19.8039C12.9187 19.7147 12.9738 19.5929 12.9794 19.464V18.353C13.875 17.9047 14.6281 17.2162 15.1548 16.3644C15.6814 15.5126 15.9608 14.5311 15.9616 13.5296V9.84523C15.9601 9.12463 15.6732 8.43397 15.1637 7.92443C14.6541 7.41489 13.9635 7.12797 13.2429 7.12648H13.1594C12.5782 7.12846 12.0146 7.32667 11.5601 7.68898C11.2789 7.90995 10.9311 8.02906 10.5736 8.02684C10.216 8.02463 9.8697 7.90123 9.59131 7.6768L9.50693 7.60836C9.0167 7.2084 8.39612 7.00344 7.76412 7.03273C7.06472 7.0646 6.40458 7.36505 5.92118 7.8715C5.43778 8.37795 5.16839 9.05136 5.16912 9.75148V11.064C4.58131 10.2493 3.86787 8.72023 3.86693 6.11492C3.86693 6.09711 3.84631 4.33367 5.12974 3.02117C6.09631 2.03492 7.55974 1.5343 9.47787 1.5343H17.171C17.2372 1.53565 17.3017 1.55499 17.3577 1.59022C17.4137 1.62546 17.4591 1.67528 17.489 1.73433C17.5188 1.79338 17.5321 1.85945 17.5272 1.92545C17.5224 1.99145 17.4997 2.05489 17.4616 2.10898L16.5035 3.42148C16.3236 3.66602 16.2116 3.95373 16.1787 4.25549C16.1457 4.55725 16.1931 4.86235 16.316 5.13992C16.7355 6.0827 16.8546 7.13176 16.6572 8.14461C16.6449 8.20912 16.6454 8.27543 16.6588 8.33974C16.6721 8.40405 16.6979 8.46511 16.7348 8.51943C16.8094 8.62914 16.9245 8.70475 17.0547 8.72961C17.185 8.75447 17.3199 8.72656 17.4296 8.65202C17.5393 8.57747 17.6149 8.4624 17.6397 8.33211C17.8753 7.11862 17.7316 5.86202 17.2282 4.73305C17.1771 4.61676 17.1576 4.48906 17.1716 4.36283C17.1856 4.23659 17.2326 4.11627 17.3079 4.01398L18.266 2.70148C18.4149 2.49846 18.5047 2.25822 18.5256 2.00732C18.5464 1.75643 18.4975 1.50465 18.3841 1.27984C18.2708 1.05503 18.0975 0.865942 17.8834 0.733483C17.6693 0.601025 17.4228 0.530358 17.171 0.529297H9.47787C7.27287 0.529297 5.56568 1.13492 4.40318 2.32836C2.86006 3.91367 2.86381 5.95555 2.86756 6.12336C2.86849 10.2577 4.52881 12.0062 5.16912 12.5265ZM6.16849 9.74586C6.16805 9.30311 6.33851 8.87728 6.64434 8.55713C6.95016 8.23698 7.36775 8.04723 7.81006 8.02742H7.88318C8.24421 8.02744 8.59418 8.15194 8.87412 8.37992L8.95756 8.44836C9.41344 8.81526 9.9802 9.01685 10.5654 9.02026C11.1506 9.02366 11.7196 8.82868 12.1797 8.46711C12.4579 8.24712 12.802 8.12723 13.1566 8.1268H13.2429C13.6982 8.12803 14.1344 8.30951 14.4563 8.63154C14.7781 8.95357 14.9594 9.38994 14.9604 9.84523V13.5296C14.9604 14.6955 14.4972 15.8136 13.6728 16.638C12.8484 17.4624 11.7303 17.9255 10.5644 17.9255C9.39856 17.9255 8.28043 17.4624 7.45603 16.638C6.63164 15.8136 6.16849 14.6955 6.16849 13.5296V9.74586Z" fill="white"/>
<path d="M7.50565 23.9256C7.3238 24.0209 7.1715 24.1641 7.06524 24.3398C6.95898 24.5154 6.90281 24.7168 6.90283 24.9221V26.4221C6.90336 26.6193 6.95573 26.813 7.05469 26.9836C7.15364 27.1542 7.29571 27.2958 7.46664 27.3941C7.63757 27.4925 7.83137 27.5442 8.02859 27.5441C8.22581 27.544 8.41953 27.492 8.59033 27.3934L10.5853 26.2299L12.5869 27.3962C12.7576 27.4959 12.9517 27.5484 13.1494 27.5484C13.3471 27.5484 13.5412 27.4959 13.7119 27.3962C13.8838 27.2983 14.0265 27.1563 14.1254 26.985C14.2242 26.8136 14.2757 26.619 14.2744 26.4212V24.9212C14.2735 24.7164 14.2167 24.5158 14.1102 24.3409C14.0036 24.166 13.8514 24.0235 13.6698 23.9288C13.4883 23.8341 13.2843 23.7907 13.0799 23.8034C12.8756 23.816 12.6785 23.8842 12.51 24.0006L10.5891 25.3309L8.66721 24.0006C8.49884 23.8833 8.30161 23.8144 8.09688 23.8012C7.89215 23.7879 7.68769 23.831 7.50565 23.9256ZM13.0791 24.8199C13.0978 24.8069 13.1197 24.7993 13.1424 24.7978C13.1651 24.7964 13.1878 24.8012 13.208 24.8117C13.2282 24.8222 13.2451 24.8381 13.2569 24.8576C13.2687 24.877 13.275 24.8994 13.275 24.9221V26.4221C13.2749 26.444 13.269 26.4654 13.2579 26.4843C13.2469 26.5032 13.2311 26.5188 13.2121 26.5296C13.1931 26.5404 13.1716 26.5461 13.1497 26.546C13.1279 26.5459 13.1064 26.54 13.0875 26.529L11.7431 25.7462L13.0791 24.8199ZM9.43783 25.7462L8.08689 26.5318C8.06801 26.5428 8.04656 26.5487 8.0247 26.5488C8.00283 26.5489 7.98133 26.5433 7.96233 26.5324C7.94334 26.5216 7.92753 26.506 7.91648 26.4871C7.90543 26.4682 7.89954 26.4468 7.89939 26.4249V24.9249C7.89879 24.9021 7.90474 24.8795 7.91653 24.8599C7.92832 24.8403 7.94547 24.8245 7.96596 24.8143C7.98427 24.8049 8.00446 24.7998 8.02502 24.7993C8.05001 24.7998 8.07425 24.808 8.0944 24.8228L9.43783 25.7462Z" fill="white"/>
<path d="M10.6929 36.5903V37.24C10.6899 37.3075 10.7007 37.3749 10.7245 37.4381C10.7483 37.5013 10.7847 37.5591 10.8314 37.6079C10.8782 37.6567 10.9343 37.6955 10.9964 37.7221C11.0586 37.7486 11.1254 37.7623 11.193 37.7623C11.2606 37.7623 11.3274 37.7486 11.3896 37.7221C11.4517 37.6955 11.5078 37.6567 11.5546 37.6079C11.6013 37.5591 11.6377 37.5013 11.6615 37.4381C11.6853 37.3749 11.6961 37.3075 11.6932 37.24V36.5903C11.6876 36.4614 11.6324 36.3396 11.5393 36.2504C11.4461 36.1611 11.322 36.1113 11.193 36.1113C11.064 36.1113 10.9399 36.1611 10.8468 36.2504C10.7536 36.3396 10.6984 36.4614 10.6929 36.5903Z" fill="white"/>
<path d="M8.57826 12.3903C8.71087 12.39 8.83797 12.3372 8.93165 12.2433C9.02533 12.1495 9.07795 12.0223 9.07795 11.8897V11.5044C9.07237 11.3755 9.01723 11.2537 8.92405 11.1644C8.83086 11.0752 8.70682 11.0254 8.57779 11.0254C8.44877 11.0254 8.32473 11.0752 8.23154 11.1644C8.13835 11.2537 8.08322 11.3755 8.07764 11.5044V11.8897C8.07764 12.0224 8.13038 12.1498 8.22427 12.2437C8.31815 12.3375 8.44549 12.3903 8.57826 12.3903Z" fill="white"/>
<path d="M12.5521 12.3903C12.618 12.3907 12.6834 12.378 12.7445 12.353C12.8056 12.328 12.8611 12.2912 12.9079 12.2447C12.9547 12.1981 12.9918 12.1428 13.0171 12.0819C13.0424 12.021 13.0555 11.9557 13.0555 11.8897V11.5044C13.0499 11.3755 12.9948 11.2537 12.9016 11.1644C12.8084 11.0752 12.6844 11.0254 12.5553 11.0254C12.4263 11.0254 12.3023 11.0752 12.2091 11.1644C12.1159 11.2537 12.0608 11.3755 12.0552 11.5044V11.8897C12.0549 12.0219 12.1071 12.1488 12.2002 12.2426C12.2933 12.3364 12.4199 12.3896 12.5521 12.3903Z" fill="white"/>
<path d="M10.3977 17.1332H10.7324C11.5047 17.1325 12.2451 16.8253 12.7912 16.2792C13.3373 15.7331 13.6444 14.9927 13.6452 14.2204C13.6452 14.1548 13.6323 14.0898 13.6071 14.0292C13.582 13.9685 13.5452 13.9135 13.4988 13.8671C13.4524 13.8207 13.3973 13.7839 13.3367 13.7587C13.2761 13.7336 13.2111 13.7207 13.1455 13.7207H7.98455C7.91893 13.7207 7.85395 13.7336 7.79333 13.7587C7.7327 13.7839 7.67762 13.8207 7.63122 13.8671C7.58482 13.9135 7.54801 13.9685 7.5229 14.0292C7.49779 14.0898 7.48486 14.1548 7.48486 14.2204C7.48561 14.9927 7.79273 15.7331 8.33883 16.2792C8.88493 16.8253 9.62538 17.1325 10.3977 17.1332ZM12.5792 14.721C12.4686 15.1263 12.2279 15.484 11.8943 15.7392C11.5606 15.9944 11.1524 16.1331 10.7324 16.1338H10.3977C9.97832 16.1324 9.57104 15.9934 9.23828 15.7382C8.90552 15.4829 8.66566 15.1256 8.55549 14.721H12.5792Z" fill="white"/>
<path d="M0.594383 41.4739H20.5838C20.6242 41.4734 20.6645 41.468 20.7038 41.458C20.7427 41.4681 20.7826 41.4734 20.8228 41.4739H22.9266C23.0053 41.4739 23.083 41.4553 23.1532 41.4196C23.2234 41.384 23.2842 41.3322 23.3306 41.2686L28.5225 34.1436C30.4631 34.0011 31.5394 32.2958 31.9397 31.1333C35.7234 30.9271 35.9522 27.9149 35.9541 27.883C35.9582 27.8149 35.9483 27.7466 35.925 27.6824C35.9018 27.6182 35.8656 27.5595 35.8188 27.5098C35.772 27.4601 35.7155 27.4205 35.6529 27.3934C35.5902 27.3664 35.5227 27.3524 35.4544 27.3524H21.9909C21.9228 27.3525 21.8553 27.3666 21.7928 27.3937C21.7302 27.4208 21.6738 27.4605 21.6271 27.5101C21.5804 27.5598 21.5444 27.6185 21.5212 27.6826C21.498 27.7468 21.4881 27.8149 21.4922 27.883C21.5857 28.7101 21.9745 29.4758 22.5872 30.0393C22.6847 30.1291 22.8138 30.1766 22.9463 30.1713C23.0788 30.1659 23.2037 30.1081 23.2936 30.0107C23.3835 29.9132 23.431 29.784 23.4256 29.6515C23.4202 29.5191 23.3625 29.3941 23.265 29.3043C22.9808 29.0402 22.7616 28.7138 22.6247 28.3508H34.8309C34.5788 29.038 33.8156 30.1433 31.5234 30.1433H25.56C25.159 30.1429 24.7655 30.2517 24.4216 30.458C24.0778 30.6643 23.7965 30.9603 23.6081 31.3143C23.5562 31.4301 23.5503 31.5614 23.5915 31.6815C23.6327 31.8015 23.718 31.9015 23.8301 31.961C23.9422 32.0206 24.0728 32.0354 24.1953 32.0023C24.3179 31.9693 24.4234 31.8909 24.4903 31.783C24.5935 31.589 24.7477 31.4268 24.9361 31.3139C25.1246 31.2009 25.3403 31.1414 25.56 31.1418H30.8541C30.5109 31.919 29.7291 33.1508 28.2609 33.1508H22.9266C22.8919 33.1509 22.8574 33.1543 22.8234 33.1611L22.8028 33.1677C22.7767 33.1736 22.7513 33.1821 22.7269 33.193C22.7172 33.1974 22.7078 33.2025 22.6988 33.208C22.6782 33.2176 22.6584 33.2289 22.6397 33.2418C22.6284 33.2493 22.62 33.2586 22.6097 33.2661C22.5933 33.2789 22.5779 33.2931 22.5638 33.3083C22.5604 33.3109 22.5573 33.3137 22.5544 33.3168L21.0834 34.9527V31.9865C21.08 29.9678 20.5457 27.9855 19.5342 26.2385C18.5227 24.4914 17.0696 23.0411 15.3206 22.033C15.2636 21.997 15.1998 21.9728 15.1332 21.962C15.0666 21.9512 14.9984 21.954 14.9329 21.9703C14.8674 21.9865 14.8058 22.0158 14.7519 22.0564C14.698 22.097 14.6529 22.1481 14.6192 22.2066C14.5856 22.2651 14.5641 22.3299 14.5561 22.3969C14.5481 22.4639 14.5537 22.5318 14.5727 22.5966C14.5916 22.6614 14.6234 22.7217 14.6663 22.7739C14.7091 22.826 14.762 22.869 14.8219 22.9002C15.2062 23.1187 15.5764 23.3614 15.93 23.6268C15.6806 25.6039 14.7197 29.9614 11.0653 32.4561V28.6358C11.0597 28.5069 11.0046 28.3852 10.9114 28.2959C10.8182 28.2067 10.6942 28.1569 10.5652 28.1569C10.4361 28.1569 10.3121 28.2067 10.2189 28.2959C10.1257 28.3852 10.0706 28.5069 10.065 28.6358V32.4271C6.44907 29.9268 5.49657 25.5955 5.24813 23.6268C5.65088 23.3213 6.0751 23.0453 6.51751 22.8008C6.575 22.7692 6.6257 22.7265 6.66671 22.6753C6.70772 22.6241 6.73824 22.5653 6.75652 22.5022C6.7748 22.4392 6.78049 22.3732 6.77326 22.308C6.76603 22.2427 6.74602 22.1796 6.71438 22.1221C6.68274 22.0646 6.64009 22.0139 6.58885 21.9729C6.53762 21.9319 6.47881 21.9013 6.41578 21.8831C6.35275 21.8648 6.28674 21.8591 6.22152 21.8663C6.15629 21.8736 6.09313 21.8936 6.03563 21.9252C4.23553 22.9171 2.73461 24.3739 1.68946 26.1437C0.644316 27.9134 0.0932492 29.9312 0.0937579 31.9865V40.9705C0.0933872 41.0365 0.106063 41.1019 0.131056 41.163C0.156048 41.224 0.192865 41.2795 0.23939 41.3263C0.285914 41.3731 0.341228 41.4102 0.40215 41.4356C0.463073 41.4609 0.528403 41.474 0.594383 41.4739ZM20.5838 36.7227C20.6567 36.7224 20.7288 36.7061 20.7947 36.6748C20.8607 36.6435 20.9189 36.5981 20.9653 36.5418C21.0113 36.5174 21.0531 36.4857 21.0891 36.448L23.1516 34.1549H27.2766L22.6716 40.4736H20.8228C20.7826 40.4741 20.7427 40.4795 20.7038 40.4896C20.6645 40.4796 20.6242 40.4742 20.5838 40.4736H17.4094V33.1546C17.4085 32.5167 17.5196 31.8837 17.7375 31.2843C18.1474 30.1609 18.679 29.0857 19.3228 28.078C19.8257 29.3198 20.0851 30.6467 20.0869 31.9865V36.223C20.0871 36.355 20.1395 36.4815 20.2325 36.5751C20.3256 36.6687 20.4518 36.7217 20.5838 36.7227ZM16.8281 24.3955C17.6279 25.1603 18.3024 26.0461 18.8269 27.0205C17.9864 28.2351 17.3043 29.552 16.7972 30.9393C16.5391 31.6483 16.4078 32.3972 16.4091 33.1518V40.4736H9.15095V37.4952C9.15066 36.9585 9.2965 36.4319 9.57282 35.9718L10.9322 33.7068C10.9749 33.6944 11.0158 33.6768 11.0541 33.6543C15.1303 31.2411 16.4203 26.8358 16.8281 24.3955ZM4.35001 24.3955C4.74845 26.7871 5.9972 31.0649 9.88595 33.508L8.71501 35.4571C8.34621 36.0729 8.15178 36.7774 8.15251 37.4952V40.4736H4.76907V33.1546C4.77007 32.4 4.63838 31.6511 4.38001 30.9421C3.87307 29.552 3.19034 28.2326 2.34845 27.0158C2.87269 26.0414 3.54829 25.1563 4.35001 24.3936V24.3955ZM1.09407 31.9893C1.09439 30.6487 1.35186 29.3206 1.85251 28.0771C2.49768 29.0858 3.03024 30.1622 3.44063 31.2871C3.65858 31.8865 3.76964 32.5196 3.76876 33.1574V40.4736H1.09407V31.9893Z" fill="white"/>
<path d="M27.688 18.6877H27.6946L28.2074 18.6812V19.1668C28.2045 19.2343 28.2152 19.3017 28.2391 19.3649C28.2629 19.4282 28.2992 19.4859 28.346 19.5347C28.3927 19.5835 28.4488 19.6223 28.511 19.6489C28.5731 19.6754 28.64 19.6891 28.7075 19.6891C28.7751 19.6891 28.842 19.6754 28.9041 19.6489C28.9663 19.6223 29.0224 19.5835 29.0691 19.5347C29.1159 19.4859 29.1522 19.4282 29.176 19.3649C29.1999 19.3017 29.2106 19.2343 29.2077 19.1668V18.669L29.7327 18.6624C29.8616 18.6562 29.9831 18.6004 30.0719 18.5067C30.1606 18.413 30.2098 18.2886 30.209 18.1596C30.2083 18.0305 30.1578 17.9067 30.068 17.814C29.9782 17.7214 29.856 17.6669 29.7271 17.6621H29.7205L27.6824 17.6874C27.5535 17.6937 27.432 17.7495 27.3432 17.8432C27.2545 17.9369 27.2053 18.0612 27.2061 18.1903C27.2068 18.3193 27.2573 18.4431 27.3471 18.5358C27.4369 18.6285 27.5591 18.6829 27.688 18.6877Z" fill="white"/>
<path d="M22.6743 15.3107C22.6799 15.4396 22.735 15.5614 22.8282 15.6506C22.9214 15.7399 23.0454 15.7897 23.1745 15.7897C23.3035 15.7897 23.4275 15.7399 23.5207 15.6506C23.6139 15.5614 23.669 15.4396 23.6746 15.3107C23.6746 14.9517 23.7862 14.797 23.9559 14.5607C24.1649 14.271 24.4246 13.9045 24.4246 13.2276C24.4246 12.5507 24.1649 12.1851 23.9559 11.8945C23.7871 11.6601 23.6746 11.5054 23.6746 11.1445C23.6746 10.7835 23.7862 10.6307 23.9559 10.3945C24.1649 10.1038 24.4246 9.74291 24.4246 9.06135C24.4276 8.99384 24.4168 8.92645 24.393 8.86322C24.3691 8.79999 24.3328 8.74223 24.286 8.69343C24.2393 8.64464 24.1832 8.6058 24.121 8.57927C24.0589 8.55274 23.992 8.53906 23.9245 8.53906C23.8569 8.53906 23.79 8.55274 23.7279 8.57927C23.6658 8.6058 23.6096 8.64464 23.5629 8.69343C23.5162 8.74223 23.4798 8.79999 23.456 8.86322C23.4322 8.92645 23.4214 8.99384 23.4243 9.06135C23.4243 9.42041 23.3128 9.5751 23.1431 9.81135C22.934 10.102 22.6743 10.4629 22.6743 11.1445C22.6743 11.826 22.934 12.1879 23.1431 12.4776C23.3118 12.7129 23.4243 12.8676 23.4243 13.2276C23.4243 13.5876 23.3128 13.7423 23.1431 13.9776C22.934 14.2673 22.6743 14.6273 22.6743 15.3107Z" fill="white"/>
<path d="M28.0864 12.7521C28.092 12.881 28.1471 13.0028 28.2403 13.092C28.3335 13.1813 28.4576 13.2311 28.5866 13.2311C28.7156 13.2311 28.8396 13.1813 28.9328 13.092C29.026 13.0028 29.0812 12.881 29.0867 12.7521C29.0867 12.3931 29.1983 12.2374 29.368 12.0021C29.5771 11.7124 29.8367 11.3506 29.8367 10.669C29.8367 9.98744 29.5771 9.6265 29.368 9.33588C29.1992 9.1015 29.0867 8.94588 29.0867 8.58588C29.0867 8.22588 29.1983 8.07213 29.368 7.83588C29.5771 7.54525 29.8367 7.18432 29.8367 6.50275C29.8397 6.43525 29.8289 6.36785 29.8051 6.30462C29.7813 6.24139 29.7449 6.18364 29.6982 6.13484C29.6514 6.08604 29.5953 6.04721 29.5332 6.02068C29.471 5.99415 29.4042 5.98047 29.3366 5.98047C29.269 5.98047 29.2021 5.99415 29.14 6.02068C29.0779 6.04721 29.0217 6.08604 28.975 6.13484C28.9283 6.18364 28.8919 6.24139 28.8681 6.30462C28.8443 6.36785 28.8335 6.43525 28.8364 6.50275C28.8364 6.86182 28.7249 7.0165 28.5552 7.25275C28.3461 7.54338 28.0864 7.909 28.0864 8.58588C28.0864 9.26275 28.3461 9.62932 28.5552 9.919C28.7239 10.1543 28.8364 10.309 28.8364 10.669C28.8364 11.029 28.7249 11.1837 28.5552 11.419C28.3461 11.7115 28.0864 12.0734 28.0864 12.7521Z" fill="white"/>
<path d="M33.4985 15.3107C33.5041 15.4396 33.5593 15.5614 33.6524 15.6506C33.7456 15.7399 33.8697 15.7897 33.9987 15.7897C34.1277 15.7897 34.2518 15.7399 34.3449 15.6506C34.4381 15.5614 34.4933 15.4396 34.4988 15.3107C34.4988 14.9517 34.6104 14.797 34.7801 14.5607C34.9892 14.271 35.2488 13.9045 35.2488 13.2276C35.2488 12.5507 34.9892 12.1851 34.7801 11.8945C34.6113 11.6601 34.4988 11.5054 34.4988 11.1445C34.4988 10.7835 34.6104 10.6307 34.7801 10.3945C34.9892 10.1038 35.2488 9.74291 35.2488 9.06135C35.2518 8.99384 35.241 8.92645 35.2172 8.86322C35.1934 8.79999 35.157 8.74223 35.1103 8.69343C35.0635 8.64464 35.0074 8.6058 34.9453 8.57927C34.8831 8.55274 34.8163 8.53906 34.7487 8.53906C34.6811 8.53906 34.6143 8.55274 34.5521 8.57927C34.49 8.6058 34.4339 8.64464 34.3871 8.69343C34.3404 8.74223 34.304 8.79999 34.2802 8.86322C34.2564 8.92645 34.2456 8.99384 34.2485 9.06135C34.2485 9.42041 34.137 9.5751 33.9673 9.81135C33.7582 10.102 33.4985 10.4629 33.4985 11.1445C33.4985 11.826 33.7582 12.1879 33.9673 12.4776C34.136 12.7129 34.2485 12.8676 34.2485 13.2276C34.2485 13.5876 34.137 13.7423 33.9673 13.9776C33.7582 14.2673 33.4985 14.6273 33.4985 15.3107Z" fill="white"/>
</svg>
